<svg width="661" height="40" viewBox="0 0 661 40" fill="none" xmlns="http://www.w3.org/2000/svg">
<path d="M0.0459376 31.128H2.44594V9.528H0.0459376V1.656H22.0779C26.0779 1.656 29.1979 2.472 31.4379 4.104C33.6779 5.736 34.7979 8.072 34.7979 11.112C34.7979 13 34.3499 14.6 33.4539 15.912C32.5579 17.192 31.5019 18.168 30.2859 18.84C29.1019 19.48 27.9499 19.912 26.8299 20.136V20.616C29.1019 20.84 31.1499 21.56 32.9739 22.776C34.7979 23.992 35.7099 26.168 35.7099 29.304C35.7099 32.664 34.4459 35.128 31.9179 36.696C29.3899 38.232 26.1099 39 22.0779 39H0.0459376V31.128ZM18.4779 17.4C19.4059 17.4 20.0939 17.16 20.5419 16.68C21.0219 16.168 21.2619 15.384 21.2619 14.328V12.6C21.2619 11.544 21.0219 10.776 20.5419 10.296C20.0939 9.784 19.4059 9.528 18.4779 9.528H15.8859V17.4H18.4779ZM18.8139 31.128C19.7419 31.128 20.4299 30.888 20.8779 30.408C21.3579 29.896 21.5979 29.112 21.5979 28.056V25.944C21.5979 24.888 21.3579 24.12 20.8779 23.64C20.4299 23.128 19.7419 22.872 18.8139 22.872H15.8859V31.128H18.8139ZM37.2647 31.128H39.6647V9.528H37.2647V1.656H59.2967C63.4247 1.656 66.5767 2.504 68.7527 4.2C70.9287 5.896 72.0167 8.648 72.0167 12.456C72.0167 14.6 71.5847 16.456 70.7207 18.024C69.8567 19.592 68.6247 20.68 67.0247 21.288L67.0727 21.768C70.1447 22.248 71.6807 24.136 71.6807 27.432V31.128H73.9367V39H58.7207V27.72C58.7207 26.472 58.5287 25.528 58.1447 24.888C57.7927 24.248 57.2167 23.816 56.4167 23.592C55.6487 23.368 54.5447 23.256 53.1047 23.256V31.128H56.2727V39H37.2647V31.128ZM55.6967 17.4C56.6247 17.4 57.3127 17.16 57.7607 16.68C58.2407 16.168 58.4807 15.384 58.4807 14.328V12.6C58.4807 11.544 58.2407 10.776 57.7607 10.296C57.3127 9.784 56.6247 9.528 55.6967 9.528H53.1047V17.4H55.6967ZM93.7033 39.672C87.8473 39.672 83.3193 38.136 80.1193 35.064C76.9513 31.992 75.3673 27.08 75.3673 20.328C75.3673 13.576 76.9513 8.664 80.1193 5.592C83.3193 2.52 87.8473 0.983997 93.7033 0.983997C99.5593 0.983997 104.071 2.52 107.239 5.592C110.439 8.664 112.039 13.576 112.039 20.328C112.039 27.08 110.439 31.992 107.239 35.064C104.071 38.136 99.5593 39.672 93.7033 39.672ZM93.7033 31.128C94.7913 31.128 95.6073 30.84 96.1513 30.264C96.6953 29.688 96.9673 28.792 96.9673 27.576V13.08C96.9673 11.864 96.6953 10.968 96.1513 10.392C95.6073 9.816 94.7913 9.528 93.7033 9.528C92.6153 9.528 91.7993 9.816 91.2553 10.392C90.7113 10.968 90.4393 11.864 90.4393 13.08V27.576C90.4393 28.824 90.7113 29.736 91.2553 30.312C91.7993 30.856 92.6153 31.128 93.7033 31.128ZM153.773 1.656H169.133V9.528H167.213L160.061 39H145.709L141.341 18.264H140.861L136.253 39H121.901L114.269 9.528H112.349V1.656H130.109V9.528H128.285L130.157 21.768H130.637L135.197 1.656H149.021L153.245 21.768H153.725L155.597 9.528H153.773V1.656ZM185.551 39.672C182.479 39.672 179.567 39.416 176.815 38.904C174.095 38.36 171.999 37.752 170.527 37.08V27.576H181.087C181.087 28.568 181.311 29.288 181.759 29.736C182.207 30.184 183.023 30.408 184.207 30.408C185.199 30.408 185.903 30.264 186.319 29.976C186.767 29.656 186.991 29.192 186.991 28.584C186.991 28.072 186.783 27.64 186.367 27.288C185.951 26.904 185.231 26.52 184.207 26.136L180.079 24.696C176.527 23.352 173.967 21.768 172.399 19.944C170.863 18.12 170.095 15.656 170.095 12.552C170.095 8.776 171.327 5.912 173.791 3.96C176.287 1.976 180.431 0.983997 186.223 0.983997C189.007 0.983997 191.615 1.272 194.047 1.848C196.511 2.392 198.495 3.128 199.999 4.056V12.648H190.399C190.399 11.048 189.407 10.248 187.423 10.248C186.463 10.248 185.775 10.376 185.359 10.632C184.975 10.856 184.783 11.272 184.783 11.88C184.783 12.424 185.007 12.856 185.455 13.176C185.935 13.496 186.703 13.832 187.759 14.184L191.935 15.624C195.327 16.776 197.791 18.28 199.327 20.136C200.895 21.96 201.679 24.36 201.679 27.336C201.679 31.4 200.303 34.472 197.551 36.552C194.831 38.632 190.831 39.672 185.551 39.672ZM203.015 39V31.128H205.415V9.528H203.015V1.656H235.415V16.152H224.663V9.528H218.855V17.112H223.079V22.584H218.855V31.128H224.663V23.544H235.415V39H203.015ZM251.624 31.128H254.024V9.528H251.624V1.656H273.656C277.656 1.656 280.776 2.472 283.016 4.104C285.256 5.736 286.376 8.072 286.376 11.112C286.376 13 285.928 14.6 285.032 15.912C284.136 17.192 283.08 18.168 281.864 18.84C280.68 19.48 279.528 19.912 278.408 20.136V20.616C280.68 20.84 282.728 21.56 284.552 22.776C286.376 23.992 287.288 26.168 287.288 29.304C287.288 32.664 286.024 35.128 283.496 36.696C280.968 38.232 277.688 39 273.656 39H251.624V31.128ZM270.056 17.4C270.984 17.4 271.672 17.16 272.12 16.68C272.6 16.168 272.84 15.384 272.84 14.328V12.6C272.84 11.544 272.6 10.776 272.12 10.296C271.672 9.784 270.984 9.528 270.056 9.528H267.464V17.4H270.056ZM270.392 31.128C271.32 31.128 272.008 30.888 272.456 30.408C272.936 29.896 273.176 29.112 273.176 28.056V25.944C273.176 24.888 272.936 24.12 272.456 23.64C272.008 23.128 271.32 22.872 270.392 22.872H267.464V31.128H270.392ZM308.975 1.656H323.711V9.528H321.791L312.527 26.136V31.128H314.927V39H296.687V31.128H299.087V26.136L289.535 9.528H287.615V1.656H306.191V9.528H304.511L307.343 16.968H307.823L310.655 9.528H308.975V1.656ZM349.015 39.672C345.751 39.672 343.287 38.456 341.623 36.024C339.991 33.592 339.175 30.136 339.175 25.656C339.175 21.176 339.991 17.72 341.623 15.288C343.287 12.856 345.751 11.64 349.015 11.64C350.647 11.64 352.087 12.04 353.335 12.84C354.615 13.64 355.655 14.552 356.455 15.576V9.528H353.623V1.656H367.495V31.128H369.607V39H356.455V35.736C355.655 36.76 354.615 37.672 353.335 38.472C352.087 39.272 350.647 39.672 349.015 39.672ZM353.671 31.128C354.599 31.128 355.287 30.888 355.735 30.408C356.215 29.896 356.455 29.112 356.455 28.056V23.256C356.455 22.2 356.215 21.432 355.735 20.952C355.287 20.44 354.599 20.184 353.671 20.184C352.743 20.184 352.039 20.44 351.559 20.952C351.111 21.432 350.887 22.2 350.887 23.256V28.056C350.887 29.112 351.111 29.896 351.559 30.408C352.039 30.888 352.743 31.128 353.671 31.128ZM391.649 11.64C392.289 11.64 392.897 11.704 393.473 11.832C394.049 11.96 394.529 12.12 394.913 12.312V21.48C393.601 20.936 392.193 20.664 390.689 20.664C388.673 20.664 387.121 21.192 386.033 22.248C384.945 23.304 384.401 24.872 384.401 26.952V31.128H388.721V39H371.249V31.128H373.361V20.184H371.249V12.312H384.401V15.816C385.297 14.472 386.321 13.448 387.473 12.744C388.625 12.008 390.017 11.64 391.649 11.64ZM410.77 39.672C406.226 39.672 402.674 38.488 400.114 36.12C397.554 33.72 396.274 30.232 396.274 25.656C396.274 21.08 397.554 17.608 400.114 15.24C402.674 12.84 406.226 11.64 410.77 11.64C415.282 11.64 418.53 12.824 420.514 15.192C422.53 17.528 423.538 20.44 423.538 23.928V27.384H407.986V27.672C407.986 28.856 408.338 29.736 409.042 30.312C409.746 30.856 410.914 31.128 412.546 31.128C414.498 31.128 416.354 30.984 418.114 30.696C419.874 30.408 421.41 30.04 422.722 29.592V37.272C421.602 37.88 419.954 38.44 417.778 38.952C415.634 39.432 413.298 39.672 410.77 39.672ZM413.554 22.104V21.528C413.554 20.44 413.314 19.656 412.834 19.176C412.386 18.696 411.698 18.456 410.77 18.456C409.842 18.456 409.138 18.712 408.658 19.224C408.21 19.704 407.986 20.472 407.986 21.528V22.104H413.554ZM436.63 39.672C432.598 39.672 428.71 39.032 424.966 37.752V30.648H432.742V31.128C432.742 32.664 433.718 33.432 435.67 33.432C437.398 33.432 438.262 32.84 438.262 31.656C438.262 31.016 438.006 30.536 437.494 30.216C437.014 29.896 436.15 29.624 434.902 29.4L432.502 28.968C427.478 28.072 424.966 25.224 424.966 20.424C424.966 17.64 426.022 15.48 428.134 13.944C430.246 12.408 433.094 11.64 436.678 11.64C440.678 11.64 444.054 12.312 446.806 13.656V20.328H439.51V19.848C439.51 19.208 439.286 18.728 438.838 18.408C438.422 18.056 437.798 17.88 436.966 17.88C435.366 17.88 434.566 18.392 434.566 19.416C434.566 19.96 434.79 20.376 435.238 20.664C435.686 20.952 436.502 21.224 437.686 21.48L440.422 22.008C443.27 22.552 445.302 23.56 446.518 25.032C447.734 26.504 448.342 28.392 448.342 30.696C448.342 33.608 447.318 35.832 445.27 37.368C443.254 38.904 440.374 39.672 436.63 39.672ZM461.52 39.672C457.488 39.672 453.6 39.032 449.856 37.752V30.648H457.632V31.128C457.632 32.664 458.608 33.432 460.56 33.432C462.288 33.432 463.152 32.84 463.152 31.656C463.152 31.016 462.896 30.536 462.384 30.216C461.904 29.896 461.04 29.624 459.792 29.4L457.392 28.968C452.368 28.072 449.856 25.224 449.856 20.424C449.856 17.64 450.912 15.48 453.024 13.944C455.136 12.408 457.984 11.64 461.568 11.64C465.568 11.64 468.944 12.312 471.696 13.656V20.328H464.4V19.848C464.4 19.208 464.176 18.728 463.728 18.408C463.312 18.056 462.688 17.88 461.856 17.88C460.256 17.88 459.456 18.392 459.456 19.416C459.456 19.96 459.68 20.376 460.128 20.664C460.576 20.952 461.392 21.224 462.576 21.48L465.312 22.008C468.16 22.552 470.192 23.56 471.408 25.032C472.624 26.504 473.232 28.392 473.232 30.696C473.232 33.608 472.208 35.832 470.16 37.368C468.144 38.904 465.264 39.672 461.52 39.672ZM504.113 39.672C501.041 39.672 498.129 39.416 495.377 38.904C492.657 38.36 490.561 37.752 489.089 37.08V27.576H499.649C499.649 28.568 499.873 29.288 500.321 29.736C500.769 30.184 501.585 30.408 502.769 30.408C503.761 30.408 504.465 30.264 504.881 29.976C505.329 29.656 505.553 29.192 505.553 28.584C505.553 28.072 505.345 27.64 504.929 27.288C504.513 26.904 503.793 26.52 502.769 26.136L498.641 24.696C495.089 23.352 492.529 21.768 490.961 19.944C489.425 18.12 488.657 15.656 488.657 12.552C488.657 8.776 489.889 5.912 492.353 3.96C494.849 1.976 498.993 0.983997 504.785 0.983997C507.569 0.983997 510.177 1.272 512.609 1.848C515.073 2.392 517.057 3.128 518.561 4.056V12.648H508.961C508.961 11.048 507.969 10.248 505.985 10.248C505.025 10.248 504.337 10.376 503.921 10.632C503.537 10.856 503.345 11.272 503.345 11.88C503.345 12.424 503.569 12.856 504.017 13.176C504.497 13.496 505.265 13.832 506.321 14.184L510.497 15.624C513.889 16.776 516.353 18.28 517.889 20.136C519.457 21.96 520.241 24.36 520.241 27.336C520.241 31.4 518.865 34.472 516.113 36.552C513.393 38.632 509.393 39.672 504.113 39.672ZM557.385 13.272H549.129V9.528H546.057V31.128H549.417V39H529.257V31.128H532.617V9.528H529.545V13.272H521.289V1.656H557.385V13.272ZM580.006 1.656H594.742V9.528H592.822L583.558 26.136V31.128H585.958V39H567.718V31.128H570.118V26.136L560.566 9.528H558.646V1.656H577.222V9.528H575.542L578.374 16.968H578.854L581.686 9.528H580.006V1.656ZM596.296 39V31.128H598.696V9.528H596.296V1.656H616.552V9.528H612.136V31.128H616.456V26.712H626.008V39H596.296ZM627.655 39V31.128H630.055V9.528H627.655V1.656H660.055V16.152H649.303V9.528H643.495V17.112H647.719V22.584H643.495V31.128H649.303V23.544H660.055V39H627.655Z" fill="black"/>
</svg>
