<svg width="626" height="74" viewBox="0 0 626 74" fill="none" xmlns="http://www.w3.org/2000/svg">
<path d="M22.12 41.96L1.84 42V38.16L11.4 30.08C15.36 26.72 16.68 24.8 16.68 22C16.68 18.68 14.88 16.8 11.8 16.8C8.6 16.8 6.6 19.04 6.56 22.8H1.48C1.52 16.4 5.6 12.24 11.8 12.24C18.04 12.24 21.92 15.8 21.92 21.72C21.92 25.8 19.68 28.88 15.24 32.68L9.96 37.2H22.12V41.96ZM25.2747 27.44C25.2747 18.36 30.1547 12.2 37.6347 12.2C45.1147 12.2 50.0347 18.36 50.0347 27.44C50.0347 36.48 45.3947 42.52 37.6347 42.52C29.8747 42.52 25.2747 36.48 25.2747 27.44ZM30.3147 27.44C30.3147 34.2 33.0347 38 37.6347 38C42.2747 38 44.9947 34.2 44.9947 27.44C44.9947 20.52 42.2747 16.72 37.6347 16.72C33.0347 16.72 30.3147 20.52 30.3147 27.44ZM53.4778 27.44C53.4778 18.36 58.3578 12.2 65.8378 12.2C73.3178 12.2 78.2378 18.36 78.2378 27.44C78.2378 36.48 73.5978 42.52 65.8378 42.52C58.0778 42.52 53.4778 36.48 53.4778 27.44ZM58.5178 27.44C58.5178 34.2 61.2378 38 65.8378 38C70.4778 38 73.1978 34.2 73.1978 27.44C73.1978 20.52 70.4778 16.72 65.8378 16.72C61.2378 16.72 58.5178 20.52 58.5178 27.44ZM83.1609 26.48H91.1209V18.52H95.2009V26.48H103.161V30.56H95.2009V38.56H91.1209V30.56H83.1609V26.48Z" fill="black"/>
<path d="M1.44 68V56.8H2.96V68H1.44ZM5.68625 68V59.68H7.07825V61.072C7.37692 60.624 7.75558 60.2507 8.21425 59.952C8.68358 59.6427 9.23825 59.488 9.87825 59.488C10.8169 59.488 11.5156 59.7707 11.9743 60.336C12.4436 60.9013 12.6783 61.648 12.6783 62.576V68H11.2383V62.736C11.2383 62.1387 11.0943 61.6587 10.8063 61.296C10.5289 60.9333 10.1396 60.752 9.63825 60.752C9.14758 60.752 8.68358 60.928 8.24625 61.28C7.80892 61.6213 7.43558 62.0267 7.12625 62.496V68H5.68625ZM18.067 68.192C17.267 68.192 16.6323 67.9307 16.163 67.408C15.7043 66.8747 15.475 66.1173 15.475 65.136V61.232H14.035V59.984H15.507L15.811 57.36H16.915V59.984H19.219V61.232H16.915V65.248C16.915 65.8667 17.043 66.2987 17.299 66.544C17.5657 66.7893 17.8803 66.912 18.243 66.912C18.5097 66.912 18.7603 66.8693 18.995 66.784C19.2403 66.6987 19.4643 66.5973 19.667 66.48L20.067 67.632C19.8537 67.76 19.5657 67.8827 19.203 68C18.8403 68.128 18.4617 68.192 18.067 68.192ZM24.5299 68.192C23.3352 68.192 22.3859 67.8133 21.6819 67.056C20.9885 66.288 20.6419 65.216 20.6419 63.84C20.6419 63.008 20.7965 62.2667 21.1059 61.616C21.4259 60.9547 21.8685 60.4373 22.4339 60.064C22.9992 59.68 23.6552 59.488 24.4019 59.488C25.2019 59.488 25.8632 59.664 26.3859 60.016C26.9192 60.3573 27.3192 60.8213 27.5859 61.408C27.8525 61.9947 27.9859 62.64 27.9859 63.344C27.9859 63.7173 27.9699 64.08 27.9379 64.432H22.1139C22.2099 65.2107 22.4819 65.8187 22.9299 66.256C23.3779 66.6933 23.9699 66.912 24.7059 66.912C25.1859 66.912 25.6179 66.864 26.0019 66.768C26.3859 66.6613 26.7539 66.528 27.1059 66.368L27.4419 67.6C27.0579 67.7707 26.6259 67.9093 26.1459 68.016C25.6659 68.1333 25.1272 68.192 24.5299 68.192ZM22.0979 63.264H26.6579C26.6579 62.4533 26.4552 61.8293 26.0499 61.392C25.6445 60.9547 25.0845 60.736 24.3699 60.736C23.7512 60.736 23.2392 60.9547 22.8339 61.392C22.4285 61.8187 22.1832 62.4427 22.0979 63.264ZM29.905 68V59.68H31.297V61.488C31.4357 61.136 31.6223 60.8107 31.857 60.512C32.0917 60.2027 32.385 59.9573 32.737 59.776C33.089 59.584 33.4997 59.488 33.969 59.488C34.129 59.488 34.289 59.4987 34.449 59.52C34.609 59.5307 34.7423 59.552 34.849 59.584L34.417 61.072C34.2143 60.9867 33.9743 60.944 33.697 60.944C33.3023 60.944 32.9237 61.056 32.561 61.28C32.209 61.504 31.9157 61.8507 31.681 62.32C31.457 62.7893 31.345 63.3867 31.345 64.112V68H29.905ZM36.2956 68V59.68H37.6876V61.072C37.9863 60.624 38.365 60.2507 38.8236 59.952C39.293 59.6427 39.8476 59.488 40.4876 59.488C41.4263 59.488 42.125 59.7707 42.5836 60.336C43.053 60.9013 43.2876 61.648 43.2876 62.576V68H41.8476V62.736C41.8476 62.1387 41.7036 61.6587 41.4156 61.296C41.1383 60.9333 40.749 60.752 40.2476 60.752C39.757 60.752 39.293 60.928 38.8556 61.28C38.4183 61.6213 38.045 62.0267 37.7356 62.496V68H36.2956ZM48.9484 68.192C48.255 68.192 47.6257 68.016 47.0604 67.664C46.495 67.312 46.0417 66.816 45.7004 66.176C45.3697 65.5253 45.2044 64.7627 45.2044 63.888C45.2044 63.056 45.3697 62.3093 45.7004 61.648C46.0417 60.9867 46.5057 60.464 47.0924 60.08C47.6897 59.6853 48.3724 59.488 49.1404 59.488C49.6204 59.488 50.0524 59.5733 50.4364 59.744C50.831 59.904 51.1724 60.1067 51.4604 60.352V59.68H52.7724V65.984C52.7724 66.3893 52.8684 66.656 53.0604 66.784C53.263 66.9013 53.4817 66.96 53.7164 66.96L53.4124 68.08C52.3884 68.08 51.7697 67.664 51.5564 66.832C51.311 67.1733 50.975 67.488 50.5484 67.776C50.1324 68.0533 49.599 68.192 48.9484 68.192ZM49.2684 66.912C49.6737 66.912 50.0577 66.816 50.4204 66.624C50.783 66.4213 51.087 66.1707 51.3324 65.872V61.408C51.0444 61.2053 50.7244 61.0453 50.3724 60.928C50.031 60.8 49.6684 60.736 49.2844 60.736C48.7724 60.736 48.319 60.8693 47.9244 61.136C47.5404 61.392 47.2364 61.7547 47.0124 62.224C46.7884 62.6827 46.6764 63.2213 46.6764 63.84C46.6764 64.4373 46.7884 64.9707 47.0124 65.44C47.2364 65.8987 47.5457 66.2613 47.9404 66.528C48.335 66.784 48.7777 66.912 49.2684 66.912ZM58.5514 68.192C57.7514 68.192 57.1167 67.9307 56.6474 67.408C56.1887 66.8747 55.9594 66.1173 55.9594 65.136V61.232H54.5194V59.984H55.9914L56.2954 57.36H57.3994V59.984H59.7034V61.232H57.3994V65.248C57.3994 65.8667 57.5274 66.2987 57.7834 66.544C58.05 66.7893 58.3647 66.912 58.7274 66.912C58.994 66.912 59.2447 66.8693 59.4794 66.784C59.7247 66.6987 59.9487 66.5973 60.1514 66.48L60.5514 67.632C60.338 67.76 60.05 67.8827 59.6874 68C59.3247 68.128 58.946 68.192 58.5514 68.192ZM61.9988 68V59.68H63.4388V68H61.9988ZM62.7188 58.256C62.4414 58.256 62.2014 58.1547 61.9988 57.952C61.8068 57.7493 61.7108 57.5147 61.7108 57.248C61.7108 56.9387 61.8014 56.6933 61.9828 56.512C62.1641 56.3307 62.4094 56.24 62.7188 56.24C62.9961 56.24 63.2308 56.3413 63.4228 56.544C63.6254 56.736 63.7268 56.9707 63.7268 57.248C63.7268 57.5467 63.6361 57.792 63.4548 57.984C63.2734 58.1653 63.0281 58.256 62.7188 58.256ZM69.5028 68.192C68.7134 68.192 68.0041 68.0107 67.3748 67.648C66.7454 67.2747 66.2494 66.7627 65.8868 66.112C65.5348 65.4507 65.3588 64.6933 65.3588 63.84C65.3588 62.944 65.5401 62.1707 65.9028 61.52C66.2654 60.8693 66.7614 60.368 67.3908 60.016C68.0201 59.664 68.7241 59.488 69.5028 59.488C70.2814 59.488 70.9801 59.664 71.5988 60.016C72.2281 60.368 72.7241 60.8693 73.0868 61.52C73.4601 62.16 73.6468 62.9227 73.6468 63.808C73.6468 64.6933 73.4654 65.4667 73.1028 66.128C72.7401 66.7787 72.2441 67.2853 71.6148 67.648C70.9961 68.0107 70.2921 68.192 69.5028 68.192ZM69.5028 66.912C70.3454 66.912 71.0014 66.6293 71.4708 66.064C71.9401 65.488 72.1748 64.7467 72.1748 63.84C72.1748 63.2853 72.0574 62.7787 71.8228 62.32C71.5881 61.8507 71.2681 61.4773 70.8628 61.2C70.4681 60.912 70.0148 60.768 69.5028 60.768C68.6601 60.768 68.0041 61.0453 67.5348 61.6C67.0654 62.1547 66.8307 62.8907 66.8307 63.808C66.8307 64.3627 66.9481 64.88 67.1828 65.36C67.4174 65.8293 67.7321 66.208 68.1268 66.496C68.5321 66.7733 68.9908 66.912 69.5028 66.912ZM75.5613 68V59.68H76.9533V61.072C77.2519 60.624 77.6306 60.2507 78.0893 59.952C78.5586 59.6427 79.1133 59.488 79.7533 59.488C80.6919 59.488 81.3906 59.7707 81.8493 60.336C82.3186 60.9013 82.5533 61.648 82.5533 62.576V68H81.1133V62.736C81.1133 62.1387 80.9693 61.6587 80.6813 61.296C80.4039 60.9333 80.0146 60.752 79.5133 60.752C79.0226 60.752 78.5586 60.928 78.1213 61.28C77.6839 61.6213 77.3106 62.0267 77.0013 62.496V68H75.5613ZM88.214 68.192C87.5207 68.192 86.8913 68.016 86.326 67.664C85.7607 67.312 85.3073 66.816 84.966 66.176C84.6353 65.5253 84.47 64.7627 84.47 63.888C84.47 63.056 84.6353 62.3093 84.966 61.648C85.3073 60.9867 85.7713 60.464 86.358 60.08C86.9553 59.6853 87.638 59.488 88.406 59.488C88.886 59.488 89.318 59.5733 89.702 59.744C90.0967 59.904 90.438 60.1067 90.726 60.352V59.68H92.038V65.984C92.038 66.3893 92.134 66.656 92.326 66.784C92.5287 66.9013 92.7473 66.96 92.982 66.96L92.678 68.08C91.654 68.08 91.0353 67.664 90.822 66.832C90.5767 67.1733 90.2407 67.488 89.814 67.776C89.398 68.0533 88.8647 68.192 88.214 68.192ZM88.534 66.912C88.9393 66.912 89.3233 66.816 89.686 66.624C90.0487 66.4213 90.3527 66.1707 90.598 65.872V61.408C90.31 61.2053 89.99 61.0453 89.638 60.928C89.2967 60.8 88.934 60.736 88.55 60.736C88.038 60.736 87.5847 60.8693 87.19 61.136C86.806 61.392 86.502 61.7547 86.278 62.224C86.054 62.6827 85.942 63.2213 85.942 63.84C85.942 64.4373 86.054 64.9707 86.278 65.44C86.502 65.8987 86.8113 66.2613 87.206 66.528C87.6007 66.784 88.0433 66.912 88.534 66.912ZM97.433 68.192C96.9423 68.192 96.4997 68.1013 96.105 67.92C95.7103 67.728 95.3957 67.424 95.161 67.008C94.937 66.592 94.825 66.0533 94.825 65.392V56.16H96.265V65.248C96.265 65.824 96.3823 66.2507 96.617 66.528C96.8623 66.8053 97.1983 66.944 97.625 66.944C97.8277 66.944 98.025 66.9227 98.217 66.88C98.4197 66.8267 98.5903 66.768 98.729 66.704L99.081 67.872C98.889 67.9573 98.649 68.032 98.361 68.096C98.0837 68.16 97.7743 68.192 97.433 68.192ZM108.625 68.128C107.974 68.128 107.356 68.112 106.769 68.08C106.193 68.048 105.734 68.0107 105.393 67.968V56.832C105.766 56.7893 106.23 56.752 106.785 56.72C107.34 56.688 107.974 56.672 108.689 56.672C110.054 56.672 111.105 56.9333 111.841 57.456C112.577 57.968 112.945 58.6667 112.945 59.552C112.945 60.1387 112.785 60.64 112.465 61.056C112.156 61.4613 111.702 61.7973 111.105 62.064C111.83 62.32 112.38 62.6773 112.753 63.136C113.126 63.584 113.313 64.1387 113.313 64.8C113.313 65.8133 112.913 66.624 112.113 67.232C111.313 67.8293 110.15 68.128 108.625 68.128ZM106.913 61.632H108.673C109.516 61.632 110.182 61.456 110.673 61.104C111.174 60.752 111.425 60.2987 111.425 59.744C111.425 59.1467 111.18 58.6933 110.689 58.384C110.198 58.064 109.526 57.904 108.673 57.904C108.321 57.904 108.001 57.9147 107.713 57.936C107.425 57.9467 107.158 57.9627 106.913 57.984V61.632ZM108.737 66.864C109.686 66.864 110.428 66.6933 110.961 66.352C111.494 66.0107 111.761 65.5147 111.761 64.864C111.761 64.224 111.5 63.7227 110.977 63.36C110.454 62.9973 109.708 62.816 108.737 62.816H106.913V66.768C107.478 66.832 108.086 66.864 108.737 66.864ZM115.311 68V59.68H116.703V61.488C116.842 61.136 117.029 60.8107 117.263 60.512C117.498 60.2027 117.791 59.9573 118.143 59.776C118.495 59.584 118.906 59.488 119.375 59.488C119.535 59.488 119.695 59.4987 119.855 59.52C120.015 59.5307 120.149 59.552 120.255 59.584L119.823 61.072C119.621 60.9867 119.381 60.944 119.103 60.944C118.709 60.944 118.33 61.056 117.967 61.28C117.615 61.504 117.322 61.8507 117.087 62.32C116.863 62.7893 116.751 63.3867 116.751 64.112V68H115.311ZM124.402 68.192C123.708 68.192 123.079 68.016 122.514 67.664C121.948 67.312 121.495 66.816 121.154 66.176C120.823 65.5253 120.658 64.7627 120.658 63.888C120.658 63.056 120.823 62.3093 121.154 61.648C121.495 60.9867 121.959 60.464 122.546 60.08C123.143 59.6853 123.826 59.488 124.594 59.488C125.074 59.488 125.506 59.5733 125.89 59.744C126.284 59.904 126.626 60.1067 126.914 60.352V59.68H128.226V65.984C128.226 66.3893 128.322 66.656 128.514 66.784C128.716 66.9013 128.935 66.96 129.17 66.96L128.866 68.08C127.842 68.08 127.223 67.664 127.01 66.832C126.764 67.1733 126.428 67.488 126.002 67.776C125.586 68.0533 125.052 68.192 124.402 68.192ZM124.722 66.912C125.127 66.912 125.511 66.816 125.874 66.624C126.236 66.4213 126.54 66.1707 126.786 65.872V61.408C126.498 61.2053 126.178 61.0453 125.826 60.928C125.484 60.8 125.122 60.736 124.738 60.736C124.226 60.736 123.772 60.8693 123.378 61.136C122.994 61.392 122.69 61.7547 122.466 62.224C122.242 62.6827 122.13 63.2213 122.13 63.84C122.13 64.4373 122.242 64.9707 122.466 65.44C122.69 65.8987 122.999 66.2613 123.394 66.528C123.788 66.784 124.231 66.912 124.722 66.912ZM131.093 68V59.68H132.485V61.072C132.783 60.624 133.162 60.2507 133.621 59.952C134.09 59.6427 134.645 59.488 135.285 59.488C136.223 59.488 136.922 59.7707 137.381 60.336C137.85 60.9013 138.085 61.648 138.085 62.576V68H136.645V62.736C136.645 62.1387 136.501 61.6587 136.213 61.296C135.935 60.9333 135.546 60.752 135.045 60.752C134.554 60.752 134.09 60.928 133.653 61.28C133.215 61.6213 132.842 62.0267 132.533 62.496V68H131.093ZM143.713 68.192C143.031 68.192 142.407 68.016 141.841 67.664C141.276 67.312 140.828 66.816 140.497 66.176C140.167 65.5253 140.001 64.7627 140.001 63.888C140.001 63.0453 140.167 62.2933 140.497 61.632C140.839 60.9707 141.287 60.448 141.841 60.064C142.407 59.68 143.025 59.488 143.697 59.488C144.252 59.488 144.727 59.6 145.121 59.824C145.527 60.048 145.841 60.2773 146.065 60.512V56.16H147.505V65.984C147.505 66.3893 147.601 66.656 147.793 66.784C147.996 66.9013 148.215 66.96 148.449 66.96L148.145 68.08C147.132 68.08 146.513 67.6747 146.289 66.864C146.055 67.1947 145.724 67.4987 145.297 67.776C144.881 68.0533 144.353 68.192 143.713 68.192ZM144.033 66.912C144.428 66.912 144.801 66.8213 145.153 66.64C145.516 66.448 145.82 66.2027 146.065 65.904V61.776C145.863 61.52 145.58 61.2853 145.217 61.072C144.855 60.848 144.455 60.736 144.017 60.736C143.505 60.736 143.057 60.8747 142.673 61.152C142.289 61.4293 141.991 61.8027 141.777 62.272C141.575 62.7307 141.473 63.2533 141.473 63.84C141.473 64.4267 141.585 64.9547 141.809 65.424C142.033 65.8827 142.337 66.2453 142.721 66.512C143.116 66.7787 143.553 66.912 144.033 66.912ZM152.614 68.192C151.984 68.192 151.414 68.112 150.902 67.952C150.4 67.792 149.984 67.584 149.654 67.328L150.262 66.128C150.539 66.3627 150.886 66.56 151.302 66.72C151.728 66.8693 152.182 66.944 152.662 66.944C153.259 66.944 153.707 66.848 154.006 66.656C154.315 66.4533 154.47 66.1973 154.47 65.888C154.47 65.664 154.411 65.4667 154.294 65.296C154.187 65.1253 153.984 64.96 153.686 64.8C153.387 64.6293 152.955 64.448 152.39 64.256C151.611 63.9893 151.024 63.6747 150.63 63.312C150.246 62.9387 150.054 62.4267 150.054 61.776C150.054 61.136 150.331 60.5973 150.886 60.16C151.451 59.712 152.23 59.488 153.222 59.488C153.755 59.488 154.23 59.5467 154.646 59.664C155.062 59.7707 155.435 59.9093 155.766 60.08L155.366 61.264C155.078 61.0933 154.747 60.9547 154.374 60.848C154.011 60.7413 153.606 60.688 153.158 60.688C152.603 60.688 152.182 60.8 151.894 61.024C151.606 61.248 151.462 61.4933 151.462 61.76C151.462 62.016 151.574 62.2347 151.798 62.416C152.022 62.5973 152.459 62.7947 153.11 63.008C154.166 63.36 154.902 63.7493 155.318 64.176C155.734 64.6027 155.942 65.136 155.942 65.776C155.942 66.5227 155.638 67.1147 155.03 67.552C154.432 67.9787 153.627 68.192 152.614 68.192Z" fill="black" fill-opacity="0.6"/>
<line x1="189.5" y1="-2.18557e-08" x2="189.5" y2="74" stroke="black" stroke-opacity="0.1"/>
<path d="M243.12 41.96L222.84 42V38.16L232.4 30.08C236.36 26.72 237.68 24.8 237.68 22C237.68 18.68 235.88 16.8 232.8 16.8C229.6 16.8 227.6 19.04 227.56 22.8H222.48C222.52 16.4 226.6 12.24 232.8 12.24C239.04 12.24 242.92 15.8 242.92 21.72C242.92 25.8 240.68 28.88 236.24 32.68L230.96 37.2H243.12V41.96ZM254.142 40.24C254.142 43.56 251.742 46.2 248.502 46.6V44.64C250.302 44.32 251.662 43.24 251.662 41.84C251.342 42 250.982 42.08 250.502 42.08C248.942 42.08 247.662 40.92 247.662 39.32C247.662 37.4 248.902 36.12 250.702 36.12C252.702 36.12 254.142 37.76 254.142 40.24ZM257.017 27.44C257.017 18.36 261.897 12.2 269.377 12.2C276.857 12.2 281.777 18.36 281.777 27.44C281.777 36.48 277.137 42.52 269.377 42.52C261.617 42.52 257.017 36.48 257.017 27.44ZM262.057 27.44C262.057 34.2 264.777 38 269.377 38C274.017 38 276.737 34.2 276.737 27.44C276.737 20.52 274.017 16.72 269.377 16.72C264.777 16.72 262.057 20.52 262.057 27.44ZM285.22 27.44C285.22 18.36 290.1 12.2 297.58 12.2C305.06 12.2 309.98 18.36 309.98 27.44C309.98 36.48 305.34 42.52 297.58 42.52C289.82 42.52 285.22 36.48 285.22 27.44ZM290.26 27.44C290.26 34.2 292.98 38 297.58 38C302.22 38 304.94 34.2 304.94 27.44C304.94 20.52 302.22 16.72 297.58 16.72C292.98 16.72 290.26 20.52 290.26 27.44ZM313.423 27.44C313.423 18.36 318.303 12.2 325.783 12.2C333.263 12.2 338.183 18.36 338.183 27.44C338.183 36.48 333.543 42.52 325.783 42.52C318.023 42.52 313.423 36.48 313.423 27.44ZM318.463 27.44C318.463 34.2 321.183 38 325.783 38C330.423 38 333.143 34.2 333.143 27.44C333.143 20.52 330.423 16.72 325.783 16.72C321.183 16.72 318.463 20.52 318.463 27.44ZM343.106 26.48H351.066V18.52H355.146V26.48H363.106V30.56H355.146V38.56H351.066V30.56H343.106V26.48Z" fill="black"/>
<path d="M222.44 68V56.8H223.96V61.584H229.48V56.8H231V68H229.48V62.896H223.96V68H222.44ZM233.718 68V59.68H235.158V68H233.718ZM234.438 58.256C234.16 58.256 233.92 58.1547 233.718 57.952C233.526 57.7493 233.43 57.5147 233.43 57.248C233.43 56.9387 233.52 56.6933 233.702 56.512C233.883 56.3307 234.128 56.24 234.438 56.24C234.715 56.24 234.95 56.3413 235.142 56.544C235.344 56.736 235.446 56.9707 235.446 57.248C235.446 57.5467 235.355 57.792 235.174 57.984C234.992 58.1653 234.747 58.256 234.438 58.256ZM240.774 71.712C240.283 71.712 239.803 71.6533 239.334 71.536C238.875 71.4187 238.464 71.2427 238.102 71.008L238.63 69.76C238.886 69.9627 239.184 70.128 239.526 70.256C239.867 70.3947 240.283 70.464 240.774 70.464C241.531 70.464 242.123 70.2613 242.55 69.856C242.987 69.4613 243.206 68.8267 243.206 67.952V66.928C242.992 67.184 242.683 67.4293 242.278 67.664C241.883 67.888 241.408 68 240.854 68C240.224 68 239.627 67.84 239.062 67.52C238.496 67.1893 238.038 66.7093 237.686 66.08C237.334 65.4507 237.158 64.6933 237.158 63.808C237.158 62.976 237.328 62.2347 237.67 61.584C238.022 60.9333 238.491 60.4213 239.078 60.048C239.664 59.6747 240.31 59.488 241.014 59.488C241.483 59.488 241.91 59.568 242.294 59.728C242.678 59.888 243.008 60.0853 243.286 60.32V59.68H244.598V67.808C244.598 68.7253 244.438 69.472 244.118 70.048C243.798 70.624 243.35 71.0453 242.774 71.312C242.208 71.5787 241.542 71.712 240.774 71.712ZM241.174 66.72C241.6 66.72 241.984 66.624 242.326 66.432C242.667 66.24 242.944 66.016 243.158 65.76V61.408C242.923 61.2373 242.64 61.0827 242.31 60.944C241.979 60.8053 241.595 60.736 241.158 60.736C240.72 60.736 240.31 60.8533 239.926 61.088C239.542 61.3227 239.227 61.664 238.982 62.112C238.747 62.5493 238.63 63.088 238.63 63.728C238.63 64.336 238.747 64.864 238.982 65.312C239.227 65.76 239.542 66.1067 239.926 66.352C240.31 66.5973 240.726 66.72 241.174 66.72ZM247.077 68V56.16H248.517V61.008C248.816 60.5707 249.194 60.208 249.653 59.92C250.112 59.632 250.65 59.488 251.269 59.488C252.208 59.488 252.906 59.7707 253.365 60.336C253.834 60.9013 254.069 61.648 254.069 62.576V68H252.629V62.736C252.629 62.1387 252.49 61.6587 252.213 61.296C251.936 60.9333 251.546 60.752 251.045 60.752C250.554 60.752 250.085 60.928 249.637 61.28C249.2 61.6213 248.826 62.0267 248.517 62.496V68H247.077ZM257.346 63.168V61.856H262.786V63.168H257.346ZM270.859 68.192C270.049 68.192 269.318 68.0427 268.667 67.744C268.027 67.4347 267.483 67.0187 267.035 66.496C266.587 65.9627 266.246 65.344 266.011 64.64C265.777 63.936 265.659 63.184 265.659 62.384C265.659 61.2853 265.867 60.304 266.283 59.44C266.699 58.5653 267.291 57.8773 268.059 57.376C268.838 56.864 269.771 56.608 270.859 56.608C271.67 56.608 272.395 56.7573 273.035 57.056C273.686 57.3547 274.235 57.7707 274.683 58.304C275.131 58.8373 275.473 59.4507 275.707 60.144C275.953 60.8373 276.075 61.584 276.075 62.384C276.075 63.216 275.958 63.9413 275.723 64.56C275.489 65.168 275.211 65.696 274.891 66.144L276.315 66.928L275.627 68.192L274.075 67.04C273.681 67.3707 273.217 67.648 272.683 67.872C272.15 68.0853 271.542 68.192 270.859 68.192ZM270.827 66.88C271.265 66.88 271.659 66.8267 272.011 66.72C272.374 66.6133 272.683 66.48 272.939 66.32L271.723 65.552L272.363 64.384L273.803 65.424C274.059 65.008 274.241 64.5547 274.347 64.064C274.465 63.5627 274.523 63.0027 274.523 62.384C274.523 61.808 274.438 61.2533 274.267 60.72C274.107 60.1867 273.867 59.712 273.547 59.296C273.238 58.8693 272.854 58.5333 272.395 58.288C271.947 58.0427 271.435 57.92 270.859 57.92C270.091 57.92 269.435 58.1173 268.891 58.512C268.347 58.896 267.931 59.424 267.643 60.096C267.355 60.768 267.211 61.5307 267.211 62.384C267.211 62.96 267.291 63.52 267.451 64.064C267.611 64.5973 267.846 65.0773 268.155 65.504C268.465 65.9307 268.843 66.2667 269.291 66.512C269.739 66.7573 270.251 66.88 270.827 66.88ZM281.031 68.192C280.551 68.192 280.098 68.0907 279.671 67.888C279.245 67.6853 278.898 67.36 278.631 66.912C278.365 66.4533 278.231 65.8453 278.231 65.088V59.68H279.671V64.896C279.671 65.5467 279.81 66.048 280.087 66.4C280.365 66.7413 280.77 66.912 281.303 66.912C281.741 66.912 282.162 66.8267 282.567 66.656C282.983 66.4747 283.351 66.2347 283.671 65.936V59.68H285.111V65.84C285.111 66.2987 285.207 66.6027 285.399 66.752C285.602 66.8907 285.821 66.96 286.055 66.96L285.751 68.08C284.759 68.08 284.146 67.6853 283.911 66.896C283.538 67.28 283.106 67.5947 282.615 67.84C282.125 68.0747 281.597 68.192 281.031 68.192ZM290.995 68.192C290.302 68.192 289.673 68.016 289.107 67.664C288.542 67.312 288.089 66.816 287.747 66.176C287.417 65.5253 287.251 64.7627 287.251 63.888C287.251 63.056 287.417 62.3093 287.747 61.648C288.089 60.9867 288.553 60.464 289.139 60.08C289.737 59.6853 290.419 59.488 291.187 59.488C291.667 59.488 292.099 59.5733 292.483 59.744C292.878 59.904 293.219 60.1067 293.507 60.352V59.68H294.819V65.984C294.819 66.3893 294.915 66.656 295.107 66.784C295.31 66.9013 295.529 66.96 295.763 66.96L295.459 68.08C294.435 68.08 293.817 67.664 293.603 66.832C293.358 67.1733 293.022 67.488 292.595 67.776C292.179 68.0533 291.646 68.192 290.995 68.192ZM291.315 66.912C291.721 66.912 292.105 66.816 292.467 66.624C292.83 66.4213 293.134 66.1707 293.379 65.872V61.408C293.091 61.2053 292.771 61.0453 292.419 60.928C292.078 60.8 291.715 60.736 291.331 60.736C290.819 60.736 290.366 60.8693 289.971 61.136C289.587 61.392 289.283 61.7547 289.059 62.224C288.835 62.6827 288.723 63.2213 288.723 63.84C288.723 64.4373 288.835 64.9707 289.059 65.44C289.283 65.8987 289.593 66.2613 289.987 66.528C290.382 66.784 290.825 66.912 291.315 66.912ZM300.214 68.192C299.724 68.192 299.281 68.1013 298.886 67.92C298.492 67.728 298.177 67.424 297.942 67.008C297.718 66.592 297.606 66.0533 297.606 65.392V56.16H299.046V65.248C299.046 65.824 299.164 66.2507 299.398 66.528C299.644 66.8053 299.98 66.944 300.406 66.944C300.609 66.944 300.806 66.9227 300.998 66.88C301.201 66.8267 301.372 66.768 301.51 66.704L301.862 67.872C301.67 67.9573 301.43 68.032 301.142 68.096C300.865 68.16 300.556 68.192 300.214 68.192ZM303.218 68V59.68H304.658V68H303.218ZM303.938 58.256C303.66 58.256 303.42 58.1547 303.218 57.952C303.026 57.7493 302.93 57.5147 302.93 57.248C302.93 56.9387 303.02 56.6933 303.202 56.512C303.383 56.3307 303.628 56.24 303.938 56.24C304.215 56.24 304.45 56.3413 304.642 56.544C304.844 56.736 304.946 56.9707 304.946 57.248C304.946 57.5467 304.855 57.792 304.674 57.984C304.492 58.1653 304.247 58.256 303.938 58.256ZM310.13 68.192C309.33 68.192 308.695 67.9307 308.226 67.408C307.767 66.8747 307.538 66.1173 307.538 65.136V61.232H306.098V59.984H307.57L307.874 57.36H308.978V59.984H311.282V61.232H308.978V65.248C308.978 65.8667 309.106 66.2987 309.362 66.544C309.628 66.7893 309.943 66.912 310.306 66.912C310.572 66.912 310.823 66.8693 311.058 66.784C311.303 66.6987 311.527 66.5973 311.73 66.48L312.13 67.632C311.916 67.76 311.628 67.8827 311.266 68C310.903 68.128 310.524 68.192 310.13 68.192ZM313.629 71.712C313.309 71.712 313.026 71.68 312.781 71.616C312.546 71.552 312.359 71.4773 312.221 71.392L312.541 70.192C312.669 70.2667 312.829 70.3307 313.021 70.384C313.213 70.4373 313.426 70.464 313.661 70.464C314.109 70.464 314.509 70.32 314.861 70.032C315.213 69.744 315.549 69.1787 315.869 68.336L316.237 67.376H315.469L312.221 60.064L313.501 59.488L316.605 66.416L319.021 59.552L320.349 60.064L317.293 68.416C316.983 69.2693 316.647 69.936 316.285 70.416C315.922 70.896 315.522 71.232 315.085 71.424C314.647 71.616 314.162 71.712 313.629 71.712ZM326.753 68V56.832C327.19 56.7787 327.67 56.7413 328.193 56.72C328.726 56.688 329.275 56.672 329.841 56.672C330.769 56.672 331.558 56.8213 332.209 57.12C332.859 57.408 333.355 57.808 333.697 58.32C334.038 58.832 334.209 59.4187 334.209 60.08C334.209 60.88 334.011 61.5573 333.617 62.112C333.222 62.6667 332.673 63.0933 331.969 63.392C331.265 63.68 330.449 63.824 329.521 63.824C329.073 63.824 328.657 63.808 328.273 63.776V68H326.753ZM329.713 62.56C330.662 62.56 331.398 62.3467 331.921 61.92C332.443 61.4933 332.705 60.9227 332.705 60.208C332.705 59.5147 332.454 58.9653 331.953 58.56C331.451 58.1547 330.737 57.952 329.809 57.952C329.521 57.952 329.249 57.9573 328.993 57.968C328.737 57.9787 328.497 57.9947 328.273 58.016V62.48C328.443 62.5013 328.651 62.5227 328.897 62.544C329.142 62.5547 329.414 62.56 329.713 62.56ZM335.889 68V59.68H337.281V61.488C337.42 61.136 337.607 60.8107 337.841 60.512C338.076 60.2027 338.369 59.9573 338.721 59.776C339.073 59.584 339.484 59.488 339.953 59.488C340.113 59.488 340.273 59.4987 340.433 59.52C340.593 59.5307 340.727 59.552 340.833 59.584L340.401 61.072C340.199 60.9867 339.959 60.944 339.681 60.944C339.287 60.944 338.908 61.056 338.545 61.28C338.193 61.504 337.9 61.8507 337.665 62.32C337.441 62.7893 337.329 63.3867 337.329 64.112V68H335.889ZM345.3 68.192C344.51 68.192 343.801 68.0107 343.172 67.648C342.542 67.2747 342.046 66.7627 341.684 66.112C341.332 65.4507 341.156 64.6933 341.156 63.84C341.156 62.944 341.337 62.1707 341.7 61.52C342.062 60.8693 342.558 60.368 343.188 60.016C343.817 59.664 344.521 59.488 345.3 59.488C346.078 59.488 346.777 59.664 347.396 60.016C348.025 60.368 348.521 60.8693 348.884 61.52C349.257 62.16 349.444 62.9227 349.444 63.808C349.444 64.6933 349.262 65.4667 348.9 66.128C348.537 66.7787 348.041 67.2853 347.412 67.648C346.793 68.0107 346.089 68.192 345.3 68.192ZM345.3 66.912C346.142 66.912 346.798 66.6293 347.268 66.064C347.737 65.488 347.972 64.7467 347.972 63.84C347.972 63.2853 347.854 62.7787 347.62 62.32C347.385 61.8507 347.065 61.4773 346.66 61.2C346.265 60.912 345.812 60.768 345.3 60.768C344.457 60.768 343.801 61.0453 343.332 61.6C342.862 62.1547 342.628 62.8907 342.628 63.808C342.628 64.3627 342.745 64.88 342.98 65.36C343.214 65.8293 343.529 66.208 343.924 66.496C344.329 66.7733 344.788 66.912 345.3 66.912ZM354.51 68.192C353.827 68.192 353.203 68.016 352.638 67.664C352.073 67.312 351.625 66.816 351.294 66.176C350.963 65.5253 350.798 64.7627 350.798 63.888C350.798 63.0453 350.963 62.2933 351.294 61.632C351.635 60.9707 352.083 60.448 352.638 60.064C353.203 59.68 353.822 59.488 354.494 59.488C355.049 59.488 355.523 59.6 355.918 59.824C356.323 60.048 356.638 60.2773 356.862 60.512V56.16H358.302V65.984C358.302 66.3893 358.398 66.656 358.59 66.784C358.793 66.9013 359.011 66.96 359.246 66.96L358.942 68.08C357.929 68.08 357.31 67.6747 357.086 66.864C356.851 67.1947 356.521 67.4987 356.094 67.776C355.678 68.0533 355.15 68.192 354.51 68.192ZM354.83 66.912C355.225 66.912 355.598 66.8213 355.95 66.64C356.313 66.448 356.617 66.2027 356.862 65.904V61.776C356.659 61.52 356.377 61.2853 356.014 61.072C355.651 60.848 355.251 60.736 354.814 60.736C354.302 60.736 353.854 60.8747 353.47 61.152C353.086 61.4293 352.787 61.8027 352.574 62.272C352.371 62.7307 352.27 63.2533 352.27 63.84C352.27 64.4267 352.382 64.9547 352.606 65.424C352.83 65.8827 353.134 66.2453 353.518 66.512C353.913 66.7787 354.35 66.912 354.83 66.912ZM363.891 68.192C363.411 68.192 362.957 68.0907 362.531 67.888C362.104 67.6853 361.757 67.36 361.491 66.912C361.224 66.4533 361.091 65.8453 361.091 65.088V59.68H362.531V64.896C362.531 65.5467 362.669 66.048 362.947 66.4C363.224 66.7413 363.629 66.912 364.163 66.912C364.6 66.912 365.021 66.8267 365.427 66.656C365.843 66.4747 366.211 66.2347 366.531 65.936V59.68H367.971V65.84C367.971 66.2987 368.067 66.6027 368.259 66.752C368.461 66.8907 368.68 66.96 368.915 66.96L368.611 68.08C367.619 68.08 367.005 67.6853 366.771 66.896C366.397 67.28 365.965 67.5947 365.475 67.84C364.984 68.0747 364.456 68.192 363.891 68.192ZM374.031 68.192C373.241 68.192 372.548 68.0107 371.951 67.648C371.364 67.2747 370.911 66.7627 370.591 66.112C370.271 65.4507 370.111 64.6933 370.111 63.84C370.111 63.04 370.271 62.3093 370.591 61.648C370.921 60.9867 371.391 60.464 371.999 60.08C372.607 59.6853 373.321 59.488 374.143 59.488C374.612 59.488 375.023 59.5307 375.375 59.616C375.737 59.7013 376.084 59.824 376.415 59.984L375.983 61.2C375.684 61.0507 375.396 60.944 375.119 60.88C374.852 60.8053 374.553 60.768 374.223 60.768C373.476 60.768 372.847 61.04 372.335 61.584C371.833 62.1173 371.583 62.8587 371.583 63.808C371.583 64.384 371.689 64.9067 371.903 65.376C372.116 65.8453 372.409 66.2187 372.783 66.496C373.167 66.7733 373.615 66.912 374.127 66.912C374.532 66.912 374.879 66.8693 375.167 66.784C375.455 66.688 375.764 66.5547 376.095 66.384L376.543 67.6C376.212 67.7813 375.839 67.9253 375.423 68.032C375.017 68.1387 374.553 68.192 374.031 68.192ZM381.13 68.192C380.33 68.192 379.695 67.9307 379.226 67.408C378.767 66.8747 378.538 66.1173 378.538 65.136V61.232H377.098V59.984H378.57L378.874 57.36H379.978V59.984H382.282V61.232H379.978V65.248C379.978 65.8667 380.106 66.2987 380.362 66.544C380.628 66.7893 380.943 66.912 381.306 66.912C381.572 66.912 381.823 66.8693 382.058 66.784C382.303 66.6987 382.527 66.5973 382.73 66.48L383.13 67.632C382.916 67.76 382.628 67.8827 382.266 68C381.903 68.128 381.524 68.192 381.13 68.192ZM386.973 68.192C386.344 68.192 385.773 68.112 385.261 67.952C384.76 67.792 384.344 67.584 384.013 67.328L384.621 66.128C384.898 66.3627 385.245 66.56 385.661 66.72C386.088 66.8693 386.541 66.944 387.021 66.944C387.618 66.944 388.066 66.848 388.365 66.656C388.674 66.4533 388.829 66.1973 388.829 65.888C388.829 65.664 388.77 65.4667 388.653 65.296C388.546 65.1253 388.344 64.96 388.045 64.8C387.746 64.6293 387.314 64.448 386.749 64.256C385.97 63.9893 385.384 63.6747 384.989 63.312C384.605 62.9387 384.413 62.4267 384.413 61.776C384.413 61.136 384.69 60.5973 385.245 60.16C385.81 59.712 386.589 59.488 387.581 59.488C388.114 59.488 388.589 59.5467 389.005 59.664C389.421 59.7707 389.794 59.9093 390.125 60.08L389.725 61.264C389.437 61.0933 389.106 60.9547 388.733 60.848C388.37 60.7413 387.965 60.688 387.517 60.688C386.962 60.688 386.541 60.8 386.253 61.024C385.965 61.248 385.821 61.4933 385.821 61.76C385.821 62.016 385.933 62.2347 386.157 62.416C386.381 62.5973 386.818 62.7947 387.469 63.008C388.525 63.36 389.261 63.7493 389.677 64.176C390.093 64.6027 390.301 65.136 390.301 65.776C390.301 66.5227 389.997 67.1147 389.389 67.552C388.792 67.9787 387.986 68.192 386.973 68.192Z" fill="black" fill-opacity="0.6"/>
<line x1="423.5" y1="-2.18557e-08" x2="423.5" y2="74" stroke="black" stroke-opacity="0.1"/>
<path d="M465.36 27.52H461.8V24.2L469.32 17.28H457.16V12.76H475.72V16.84L468.6 23.4C473.08 24.28 476.56 27.56 476.56 32.72C476.56 38.72 471.88 42.52 465.96 42.52C460.24 42.52 455.8 39 455.8 32.68H460.84C460.84 36.04 462.92 37.96 466.04 37.96C469.24 37.96 471.36 35.88 471.36 32.64C471.36 29.68 469.44 27.52 465.36 27.52ZM479.493 27.44C479.493 18.36 484.373 12.2 491.853 12.2C499.333 12.2 504.253 18.36 504.253 27.44C504.253 36.48 499.613 42.52 491.853 42.52C484.093 42.52 479.493 36.48 479.493 27.44ZM484.533 27.44C484.533 34.2 487.253 38 491.853 38C496.493 38 499.213 34.2 499.213 27.44C499.213 20.52 496.493 16.72 491.853 16.72C487.253 16.72 484.533 20.52 484.533 27.44ZM513.571 40.24C513.571 43.56 511.171 46.2 507.931 46.6V44.64C509.731 44.32 511.091 43.24 511.091 41.84C510.771 42 510.411 42.08 509.931 42.08C508.371 42.08 507.091 40.92 507.091 39.32C507.091 37.4 508.331 36.12 510.131 36.12C512.131 36.12 513.571 37.76 513.571 40.24ZM516.447 27.44C516.447 18.36 521.327 12.2 528.807 12.2C536.287 12.2 541.207 18.36 541.207 27.44C541.207 36.48 536.567 42.52 528.807 42.52C521.047 42.52 516.447 36.48 516.447 27.44ZM521.487 27.44C521.487 34.2 524.207 38 528.807 38C533.447 38 536.167 34.2 536.167 27.44C536.167 20.52 533.447 16.72 528.807 16.72C524.207 16.72 521.487 20.52 521.487 27.44ZM544.65 27.44C544.65 18.36 549.53 12.2 557.01 12.2C564.49 12.2 569.41 18.36 569.41 27.44C569.41 36.48 564.77 42.52 557.01 42.52C549.25 42.52 544.65 36.48 544.65 27.44ZM549.69 27.44C549.69 34.2 552.41 38 557.01 38C561.65 38 564.37 34.2 564.37 27.44C564.37 20.52 561.65 16.72 557.01 16.72C552.41 16.72 549.69 20.52 549.69 27.44ZM572.853 27.44C572.853 18.36 577.733 12.2 585.213 12.2C592.693 12.2 597.613 18.36 597.613 27.44C597.613 36.48 592.973 42.52 585.213 42.52C577.453 42.52 572.853 36.48 572.853 27.44ZM577.893 27.44C577.893 34.2 580.613 38 585.213 38C589.853 38 592.573 34.2 592.573 27.44C592.573 20.52 589.853 16.72 585.213 16.72C580.613 16.72 577.893 20.52 577.893 27.44ZM602.536 26.48H610.496V18.52H614.576V26.48H622.536V30.56H614.576V38.56H610.496V30.56H602.536V26.48Z" fill="black"/>
<path d="M456.44 68V56.8H457.96V61.584H463.48V56.8H465V68H463.48V62.896H457.96V68H456.44ZM470.902 68.192C470.208 68.192 469.579 68.016 469.014 67.664C468.448 67.312 467.995 66.816 467.654 66.176C467.323 65.5253 467.158 64.7627 467.158 63.888C467.158 63.056 467.323 62.3093 467.654 61.648C467.995 60.9867 468.459 60.464 469.046 60.08C469.643 59.6853 470.326 59.488 471.094 59.488C471.574 59.488 472.006 59.5733 472.39 59.744C472.784 59.904 473.126 60.1067 473.414 60.352V59.68H474.726V65.984C474.726 66.3893 474.822 66.656 475.014 66.784C475.216 66.9013 475.435 66.96 475.67 66.96L475.366 68.08C474.342 68.08 473.723 67.664 473.51 66.832C473.264 67.1733 472.928 67.488 472.502 67.776C472.086 68.0533 471.552 68.192 470.902 68.192ZM471.222 66.912C471.627 66.912 472.011 66.816 472.374 66.624C472.736 66.4213 473.04 66.1707 473.286 65.872V61.408C472.998 61.2053 472.678 61.0453 472.326 60.928C471.984 60.8 471.622 60.736 471.238 60.736C470.726 60.736 470.272 60.8693 469.878 61.136C469.494 61.392 469.19 61.7547 468.966 62.224C468.742 62.6827 468.63 63.2213 468.63 63.84C468.63 64.4373 468.742 64.9707 468.966 65.44C469.19 65.8987 469.499 66.2613 469.894 66.528C470.288 66.784 470.731 66.912 471.222 66.912ZM477.662 71.52V61.808C477.662 61.4453 477.571 61.1893 477.39 61.04C477.219 60.88 476.995 60.8 476.718 60.8L477.022 59.68C478.003 59.68 478.617 60.0693 478.862 60.848C478.969 60.688 479.139 60.5013 479.374 60.288C479.619 60.0747 479.918 59.888 480.27 59.728C480.633 59.568 481.043 59.488 481.502 59.488C482.142 59.488 482.739 59.6587 483.294 60C483.859 60.3307 484.313 60.816 484.654 61.456C484.995 62.0853 485.166 62.8533 485.166 63.76C485.166 64.6453 484.995 65.424 484.654 66.096C484.313 66.7573 483.865 67.2747 483.31 67.648C482.766 68.0107 482.174 68.192 481.534 68.192C481.043 68.192 480.585 68.096 480.158 67.904C479.731 67.7013 479.379 67.472 479.102 67.216V71.52H477.662ZM481.246 66.912C481.971 66.912 482.558 66.6293 483.006 66.064C483.465 65.488 483.694 64.736 483.694 63.808C483.694 63.168 483.577 62.6187 483.342 62.16C483.118 61.7013 482.814 61.3493 482.43 61.104C482.057 60.8587 481.641 60.736 481.182 60.736C480.723 60.736 480.307 60.8533 479.934 61.088C479.571 61.312 479.294 61.5573 479.102 61.824V65.92C479.379 66.208 479.699 66.448 480.062 66.64C480.425 66.8213 480.819 66.912 481.246 66.912ZM487.162 71.52V61.808C487.162 61.4453 487.071 61.1893 486.89 61.04C486.719 60.88 486.495 60.8 486.218 60.8L486.522 59.68C487.503 59.68 488.117 60.0693 488.362 60.848C488.469 60.688 488.639 60.5013 488.874 60.288C489.119 60.0747 489.418 59.888 489.77 59.728C490.133 59.568 490.543 59.488 491.002 59.488C491.642 59.488 492.239 59.6587 492.794 60C493.359 60.3307 493.813 60.816 494.154 61.456C494.495 62.0853 494.666 62.8533 494.666 63.76C494.666 64.6453 494.495 65.424 494.154 66.096C493.813 66.7573 493.365 67.2747 492.81 67.648C492.266 68.0107 491.674 68.192 491.034 68.192C490.543 68.192 490.085 68.096 489.658 67.904C489.231 67.7013 488.879 67.472 488.602 67.216V71.52H487.162ZM490.746 66.912C491.471 66.912 492.058 66.6293 492.506 66.064C492.965 65.488 493.194 64.736 493.194 63.808C493.194 63.168 493.077 62.6187 492.842 62.16C492.618 61.7013 492.314 61.3493 491.93 61.104C491.557 60.8587 491.141 60.736 490.682 60.736C490.223 60.736 489.807 60.8533 489.434 61.088C489.071 61.312 488.794 61.5573 488.602 61.824V65.92C488.879 66.208 489.199 66.448 489.562 66.64C489.925 66.8213 490.319 66.912 490.746 66.912ZM496.566 71.712C496.246 71.712 495.963 71.68 495.718 71.616C495.483 71.552 495.297 71.4773 495.158 71.392L495.478 70.192C495.606 70.2667 495.766 70.3307 495.958 70.384C496.15 70.4373 496.363 70.464 496.598 70.464C497.046 70.464 497.446 70.32 497.798 70.032C498.15 69.744 498.486 69.1787 498.806 68.336L499.174 67.376H498.406L495.158 60.064L496.438 59.488L499.542 66.416L501.958 59.552L503.286 60.064L500.23 68.416C499.921 69.2693 499.585 69.936 499.222 70.416C498.859 70.896 498.459 71.232 498.022 71.424C497.585 71.616 497.099 71.712 496.566 71.712ZM513.994 68.192C513.023 68.192 512.165 67.9627 511.418 67.504C510.671 67.0347 510.09 66.3733 509.674 65.52C509.258 64.656 509.05 63.632 509.05 62.448C509.05 61.3067 509.258 60.2987 509.674 59.424C510.101 58.5387 510.698 57.8507 511.466 57.36C512.245 56.8587 513.151 56.608 514.186 56.608C514.719 56.608 515.205 56.6613 515.642 56.768C516.079 56.864 516.49 57.0027 516.874 57.184L516.41 58.464C516.079 58.304 515.738 58.176 515.386 58.08C515.045 57.984 514.639 57.936 514.17 57.936C513.487 57.936 512.874 58.112 512.33 58.464C511.797 58.816 511.375 59.3227 511.066 59.984C510.757 60.6453 510.602 61.4453 510.602 62.384C510.602 63.28 510.751 64.064 511.05 64.736C511.359 65.408 511.781 65.9307 512.314 66.304C512.858 66.6773 513.477 66.864 514.17 66.864C514.693 66.864 515.146 66.8 515.53 66.672C515.914 66.544 516.287 66.3787 516.65 66.176L517.114 67.44C516.719 67.6533 516.266 67.8347 515.754 67.984C515.253 68.1227 514.666 68.192 513.994 68.192ZM521.75 68.192C521.27 68.192 520.817 68.0907 520.39 67.888C519.963 67.6853 519.617 67.36 519.35 66.912C519.083 66.4533 518.95 65.8453 518.95 65.088V59.68H520.39V64.896C520.39 65.5467 520.529 66.048 520.806 66.4C521.083 66.7413 521.489 66.912 522.022 66.912C522.459 66.912 522.881 66.8267 523.286 66.656C523.702 66.4747 524.07 66.2347 524.39 65.936V59.68H525.83V65.84C525.83 66.2987 525.926 66.6027 526.118 66.752C526.321 66.8907 526.539 66.96 526.774 66.96L526.47 68.08C525.478 68.08 524.865 67.6853 524.63 66.896C524.257 67.28 523.825 67.5947 523.334 67.84C522.843 68.0747 522.315 68.192 521.75 68.192ZM530.926 68.192C530.297 68.192 529.726 68.112 529.214 67.952C528.713 67.792 528.297 67.584 527.966 67.328L528.574 66.128C528.852 66.3627 529.198 66.56 529.614 66.72C530.041 66.8693 530.494 66.944 530.974 66.944C531.572 66.944 532.02 66.848 532.318 66.656C532.628 66.4533 532.782 66.1973 532.782 65.888C532.782 65.664 532.724 65.4667 532.606 65.296C532.5 65.1253 532.297 64.96 531.998 64.8C531.7 64.6293 531.268 64.448 530.702 64.256C529.924 63.9893 529.337 63.6747 528.942 63.312C528.558 62.9387 528.366 62.4267 528.366 61.776C528.366 61.136 528.644 60.5973 529.198 60.16C529.764 59.712 530.542 59.488 531.534 59.488C532.068 59.488 532.542 59.5467 532.958 59.664C533.374 59.7707 533.748 59.9093 534.078 60.08L533.678 61.264C533.39 61.0933 533.06 60.9547 532.686 60.848C532.324 60.7413 531.918 60.688 531.47 60.688C530.916 60.688 530.494 60.8 530.206 61.024C529.918 61.248 529.774 61.4933 529.774 61.76C529.774 62.016 529.886 62.2347 530.11 62.416C530.334 62.5973 530.772 62.7947 531.422 63.008C532.478 63.36 533.214 63.7493 533.63 64.176C534.046 64.6027 534.254 65.136 534.254 65.776C534.254 66.5227 533.95 67.1147 533.342 67.552C532.745 67.9787 531.94 68.192 530.926 68.192ZM539.083 68.192C538.283 68.192 537.648 67.9307 537.179 67.408C536.72 66.8747 536.491 66.1173 536.491 65.136V61.232H535.051V59.984H536.523L536.827 57.36H537.931V59.984H540.235V61.232H537.931V65.248C537.931 65.8667 538.059 66.2987 538.315 66.544C538.581 66.7893 538.896 66.912 539.259 66.912C539.525 66.912 539.776 66.8693 540.011 66.784C540.256 66.6987 540.48 66.5973 540.683 66.48L541.083 67.632C540.869 67.76 540.581 67.8827 540.219 68C539.856 68.128 539.477 68.192 539.083 68.192ZM545.722 68.192C544.932 68.192 544.223 68.0107 543.594 67.648C542.964 67.2747 542.468 66.7627 542.106 66.112C541.754 65.4507 541.578 64.6933 541.578 63.84C541.578 62.944 541.759 62.1707 542.122 61.52C542.484 60.8693 542.98 60.368 543.61 60.016C544.239 59.664 544.943 59.488 545.722 59.488C546.5 59.488 547.199 59.664 547.818 60.016C548.447 60.368 548.943 60.8693 549.306 61.52C549.679 62.16 549.866 62.9227 549.866 63.808C549.866 64.6933 549.684 65.4667 549.322 66.128C548.959 66.7787 548.463 67.2853 547.834 67.648C547.215 68.0107 546.511 68.192 545.722 68.192ZM545.722 66.912C546.564 66.912 547.22 66.6293 547.69 66.064C548.159 65.488 548.394 64.7467 548.394 63.84C548.394 63.2853 548.276 62.7787 548.042 62.32C547.807 61.8507 547.487 61.4773 547.082 61.2C546.687 60.912 546.234 60.768 545.722 60.768C544.879 60.768 544.223 61.0453 543.754 61.6C543.284 62.1547 543.049 62.8907 543.049 63.808C543.049 64.3627 543.167 64.88 543.402 65.36C543.636 65.8293 543.951 66.208 544.346 66.496C544.751 66.7733 545.21 66.912 545.722 66.912ZM551.78 68V59.68H553.172V61.072C553.471 60.624 553.849 60.2507 554.308 59.952C554.767 59.6427 555.289 59.488 555.876 59.488C556.537 59.488 557.076 59.648 557.492 59.968C557.919 60.288 558.217 60.7147 558.388 61.248C558.719 60.7573 559.108 60.3413 559.556 60C560.015 59.6587 560.58 59.488 561.252 59.488C562.159 59.488 562.831 59.776 563.268 60.352C563.716 60.9173 563.94 61.6587 563.94 62.576V68H562.5V62.688C562.5 62.112 562.367 61.648 562.1 61.296C561.833 60.9333 561.465 60.752 560.996 60.752C560.516 60.752 560.068 60.9333 559.652 61.296C559.247 61.648 558.889 62.064 558.58 62.544V68H557.14V62.688C557.14 62.112 557.007 61.648 556.74 61.296C556.473 60.9333 556.105 60.752 555.636 60.752C555.167 60.752 554.724 60.928 554.308 61.28C553.892 61.6213 553.529 62.0267 553.22 62.496V68H551.78ZM569.749 68.192C568.554 68.192 567.605 67.8133 566.901 67.056C566.207 66.288 565.861 65.216 565.861 63.84C565.861 63.008 566.015 62.2667 566.325 61.616C566.645 60.9547 567.087 60.4373 567.653 60.064C568.218 59.68 568.874 59.488 569.621 59.488C570.421 59.488 571.082 59.664 571.605 60.016C572.138 60.3573 572.538 60.8213 572.805 61.408C573.071 61.9947 573.205 62.64 573.205 63.344C573.205 63.7173 573.189 64.08 573.157 64.432H567.333C567.429 65.2107 567.701 65.8187 568.149 66.256C568.597 66.6933 569.189 66.912 569.925 66.912C570.405 66.912 570.837 66.864 571.221 66.768C571.605 66.6613 571.973 66.528 572.325 66.368L572.661 67.6C572.277 67.7707 571.845 67.9093 571.365 68.016C570.885 68.1333 570.346 68.192 569.749 68.192ZM567.317 63.264H571.877C571.877 62.4533 571.674 61.8293 571.269 61.392C570.863 60.9547 570.303 60.736 569.589 60.736C568.97 60.736 568.458 60.9547 568.053 61.392C567.647 61.8187 567.402 62.4427 567.317 63.264ZM575.124 68V59.68H576.516V61.488C576.654 61.136 576.841 60.8107 577.076 60.512C577.31 60.2027 577.604 59.9573 577.956 59.776C578.308 59.584 578.718 59.488 579.188 59.488C579.348 59.488 579.508 59.4987 579.668 59.52C579.828 59.5307 579.961 59.552 580.068 59.584L579.636 61.072C579.433 60.9867 579.193 60.944 578.916 60.944C578.521 60.944 578.142 61.056 577.78 61.28C577.428 61.504 577.134 61.8507 576.9 62.32C576.676 62.7893 576.564 63.3867 576.564 64.112V68H575.124ZM583.348 68.192C582.719 68.192 582.148 68.112 581.636 67.952C581.135 67.792 580.719 67.584 580.388 67.328L580.996 66.128C581.273 66.3627 581.62 66.56 582.036 66.72C582.463 66.8693 582.916 66.944 583.396 66.944C583.993 66.944 584.441 66.848 584.74 66.656C585.049 66.4533 585.204 66.1973 585.204 65.888C585.204 65.664 585.145 65.4667 585.028 65.296C584.921 65.1253 584.719 64.96 584.42 64.8C584.121 64.6293 583.689 64.448 583.124 64.256C582.345 63.9893 581.759 63.6747 581.364 63.312C580.98 62.9387 580.788 62.4267 580.788 61.776C580.788 61.136 581.065 60.5973 581.62 60.16C582.185 59.712 582.964 59.488 583.956 59.488C584.489 59.488 584.964 59.5467 585.38 59.664C585.796 59.7707 586.169 59.9093 586.5 60.08L586.1 61.264C585.812 61.0933 585.481 60.9547 585.108 60.848C584.745 60.7413 584.34 60.688 583.892 60.688C583.337 60.688 582.916 60.8 582.628 61.024C582.34 61.248 582.196 61.4933 582.196 61.76C582.196 62.016 582.308 62.2347 582.532 62.416C582.756 62.5973 583.193 62.7947 583.844 63.008C584.9 63.36 585.636 63.7493 586.052 64.176C586.468 64.6027 586.676 65.136 586.676 65.776C586.676 66.5227 586.372 67.1147 585.764 67.552C585.167 67.9787 584.361 68.192 583.348 68.192Z" fill="black" fill-opacity="0.6"/>
</svg>
