<svg width="822" height="116" viewBox="0 0 822 116" fill="none" xmlns="http://www.w3.org/2000/svg">
<path d="M0.28 51V40.504H3.48V11.704H0.28V1.208H38.552V17.784H27.224V11.704H21.4V22.328H31.064V29.624H21.4V40.504H29.784V51H0.28ZM40.7175 51V40.504H43.9175V11.704H40.7175V1.208H65.0375V11.704H61.8375V40.504H65.0375V51H40.7175ZM104.457 1.208H125.449V11.704H122.249V51H104.265L85.5125 22.136V40.504H88.5845V51H67.5925V40.504H70.7925V11.704H67.5925V1.208H90.6965L107.529 26.872V11.704H104.457V1.208ZM127.905 40.504H131.105V11.768H127.905V1.208H153.889C161.014 1.208 166.668 3.17066 170.849 7.096C175.073 10.9787 177.185 17.3147 177.185 26.104C177.185 34.8933 175.073 41.2507 170.849 45.176C166.668 49.0587 161.014 51 153.889 51H127.905V40.504ZM152.737 40.504C154.188 40.504 155.276 40.12 156.001 39.352C156.726 38.584 157.089 37.3893 157.089 35.768V16.44C157.089 13.2827 155.638 11.704 152.737 11.704H149.025V40.504H152.737ZM223.362 51.896C215.298 51.896 209.069 49.848 204.674 45.752C200.322 41.656 198.146 35.1067 198.146 26.104C198.146 8.90933 206.509 0.311996 223.234 0.311996C227.287 0.311996 231.042 0.802663 234.498 1.784C237.997 2.76533 240.599 3.85333 242.306 5.048V21.048H226.946V16.44C226.946 14.8187 226.583 13.624 225.858 12.856C225.133 12.088 224.045 11.704 222.594 11.704C221.143 11.704 220.055 12.088 219.33 12.856C218.605 13.624 218.242 14.8187 218.242 16.44V35.768C218.242 37.3893 218.605 38.584 219.33 39.352C220.055 40.12 221.143 40.504 222.594 40.504C224.045 40.504 225.133 40.12 225.858 39.352C226.583 38.584 226.946 37.3893 226.946 35.768V30.584H242.306V47.16C240.557 48.3547 237.954 49.4427 234.498 50.424C231.085 51.4053 227.373 51.896 223.362 51.896ZM244.718 51V40.504H247.918V11.704H244.718V1.208H271.726V11.704H265.838V40.504H271.598V34.616H284.334V51H244.718ZM310.594 51.896C302.786 51.896 296.749 49.848 292.482 45.752C288.258 41.656 286.146 35.1067 286.146 26.104C286.146 17.1013 288.258 10.552 292.482 6.456C296.749 2.36 302.786 0.311996 310.594 0.311996C318.402 0.311996 324.418 2.36 328.642 6.456C332.909 10.552 335.042 17.1013 335.042 26.104C335.042 35.1067 332.909 41.656 328.642 45.752C324.418 49.848 318.402 51.896 310.594 51.896ZM310.594 40.504C312.045 40.504 313.133 40.12 313.858 39.352C314.583 38.584 314.946 37.3893 314.946 35.768V16.44C314.946 14.8187 314.583 13.624 313.858 12.856C313.133 12.088 312.045 11.704 310.594 11.704C309.143 11.704 308.055 12.088 307.33 12.856C306.605 13.624 306.242 14.8187 306.242 16.44V35.768C306.242 37.432 306.605 38.648 307.33 39.416C308.055 40.1413 309.143 40.504 310.594 40.504ZM384.962 16.696H373.954V11.704H369.858V40.504H374.338V51H347.458V40.504H351.938V11.704H347.842V16.696H336.834V1.208H384.962V16.696ZM438.355 11.704H435.155V40.504H438.355V51H414.163V40.504H417.235V29.944H408.275V40.504H411.347V51H387.155V40.504H390.355V11.704H387.155V1.208H411.347V11.704H408.275V21.432H417.235V11.704H414.163V1.208H438.355V11.704ZM440.905 51V40.504H444.105V11.704H440.905V1.208H484.105V20.536H469.769V11.704H462.025V21.816H467.657V29.112H462.025V40.504H469.769V30.392H484.105V51H440.905ZM506.37 51.896C502.274 51.896 498.391 51.5547 494.722 50.872C491.095 50.1467 488.301 49.336 486.338 48.44V35.768H500.418C500.418 37.0907 500.717 38.0507 501.314 38.648C501.911 39.2453 502.999 39.544 504.578 39.544C505.901 39.544 506.839 39.352 507.394 38.968C507.991 38.5413 508.29 37.9227 508.29 37.112C508.29 36.4293 508.013 35.8533 507.458 35.384C506.903 34.872 505.943 34.36 504.578 33.848L499.074 31.928C494.338 30.136 490.925 28.024 488.834 25.592C486.786 23.16 485.762 19.8747 485.762 15.736C485.762 10.7013 487.405 6.88266 490.69 4.28C494.018 1.63466 499.543 0.311996 507.266 0.311996C510.978 0.311996 514.455 0.695997 517.698 1.464C520.983 2.18933 523.629 3.17066 525.634 4.408V15.864H512.834C512.834 13.7307 511.511 12.664 508.866 12.664C507.586 12.664 506.669 12.8347 506.114 13.176C505.602 13.4747 505.346 14.0293 505.346 14.84C505.346 15.5653 505.645 16.1413 506.242 16.568C506.882 16.9947 507.906 17.4427 509.314 17.912L514.882 19.832C519.405 21.368 522.69 23.3733 524.738 25.848C526.829 28.28 527.874 31.48 527.874 35.448C527.874 40.8667 526.039 44.9627 522.37 47.736C518.743 50.5093 513.41 51.896 506.37 51.896ZM596.587 16.696H585.579V11.704H581.483V40.504H585.963V51H559.083V40.504H563.562V11.704H559.467V16.696H548.459V1.208H596.587V16.696ZM649.98 11.704H646.78V40.504H649.98V51H625.788V40.504H628.86V29.944H619.9V40.504H622.972V51H598.78V40.504H601.98V11.704H598.78V1.208H622.972V11.704H619.9V21.432H628.86V11.704H625.788V1.208H649.98V11.704ZM699.506 40.504H702.066V51H676.978V40.504H680.818L679.794 35.384H671.09L670.066 40.504H673.906V51H652.018V40.504H654.578L665.394 1.208H688.69L699.506 40.504ZM672.498 28.6H678.386L675.762 15.864H675.122L672.498 28.6ZM744.149 16.696H733.141V11.704H729.045V40.504H733.525V51H706.645V40.504H711.125V11.704H707.029V16.696H696.021V1.208H744.149V16.696ZM70.872 75.704H67.672V104.504H70.872V115H46.68V104.504H49.752V82.104L38.872 115H29.4L18.2 82.424V104.504H21.272V115H0.28V104.504H3.48V75.704H0.28V65.208H29.592L36.248 85.176L42.648 65.208H70.872V75.704ZM120.381 104.504H122.941V115H97.853V104.504H101.693L100.669 99.384H91.965L90.941 104.504H94.781V115H72.893V104.504H75.453L86.269 65.208H109.565L120.381 104.504ZM93.373 92.6H99.261L96.637 79.864H95.997L93.373 92.6ZM165.024 80.696H154.016V75.704H149.92V104.504H154.4V115H127.52V104.504H132V75.704H127.904V80.696H116.896V65.208H165.024V80.696ZM192.05 115.896C183.986 115.896 177.756 113.848 173.362 109.752C169.01 105.656 166.834 99.1067 166.834 90.104C166.834 72.9093 175.196 64.312 191.922 64.312C195.975 64.312 199.73 64.8027 203.186 65.784C206.684 66.7653 209.287 67.8533 210.994 69.048V85.048H195.634V80.44C195.634 78.8187 195.271 77.624 194.546 76.856C193.82 76.088 192.732 75.704 191.282 75.704C189.831 75.704 188.743 76.088 188.018 76.856C187.292 77.624 186.93 78.8187 186.93 80.44V99.768C186.93 101.389 187.292 102.584 188.018 103.352C188.743 104.12 189.831 104.504 191.282 104.504C192.732 104.504 193.82 104.12 194.546 103.352C195.271 102.584 195.634 101.389 195.634 99.768V94.584H210.994V111.16C209.244 112.355 206.642 113.443 203.186 114.424C199.772 115.405 196.06 115.896 192.05 115.896ZM264.605 75.704H261.405V104.504H264.605V115H240.413V104.504H243.485V93.944H234.525V104.504H237.597V115H213.405V104.504H216.605V75.704H213.405V65.208H237.597V75.704H234.525V85.432H243.485V75.704H240.413V65.208H264.605V75.704ZM267.155 115V104.504H270.355V75.704H267.155V65.208H310.355V84.536H296.019V75.704H288.275V85.816H293.907V93.112H288.275V104.504H296.019V94.392H310.355V115H267.155ZM332.62 115.896C328.524 115.896 324.641 115.555 320.972 114.872C317.345 114.147 314.551 113.336 312.588 112.44V99.768H326.668C326.668 101.091 326.967 102.051 327.564 102.648C328.161 103.245 329.249 103.544 330.828 103.544C332.151 103.544 333.089 103.352 333.644 102.968C334.241 102.541 334.54 101.923 334.54 101.112C334.54 100.429 334.263 99.8533 333.708 99.384C333.153 98.872 332.193 98.36 330.828 97.848L325.324 95.928C320.588 94.136 317.175 92.024 315.084 89.592C313.036 87.16 312.012 83.8747 312.012 79.736C312.012 74.7013 313.655 70.8827 316.94 68.28C320.268 65.6347 325.793 64.312 333.516 64.312C337.228 64.312 340.705 64.696 343.948 65.464C347.233 66.1893 349.879 67.1707 351.884 68.408V79.864H339.084C339.084 77.7307 337.761 76.664 335.116 76.664C333.836 76.664 332.919 76.8347 332.364 77.176C331.852 77.4747 331.596 78.0293 331.596 78.84C331.596 79.5653 331.895 80.1413 332.492 80.568C333.132 80.9947 334.156 81.4427 335.564 81.912L341.132 83.832C345.655 85.368 348.94 87.3733 350.988 89.848C353.079 92.28 354.124 95.48 354.124 99.448C354.124 104.867 352.289 108.963 348.62 111.736C344.993 114.509 339.66 115.896 332.62 115.896ZM403.061 65.208H422.709V75.704H420.149L407.797 97.848V104.504H410.997V115H386.677V104.504H389.877V97.848L377.141 75.704H374.581V65.208H399.349V75.704H397.109L400.885 85.624H401.525L405.301 75.704H403.061V65.208ZM446.907 115.896C439.099 115.896 433.061 113.848 428.795 109.752C424.571 105.656 422.459 99.1067 422.459 90.104C422.459 81.1013 424.571 74.552 428.795 70.456C433.061 66.36 439.099 64.312 446.907 64.312C454.715 64.312 460.731 66.36 464.955 70.456C469.221 74.552 471.355 81.1013 471.355 90.104C471.355 99.1067 469.221 105.656 464.955 109.752C460.731 113.848 454.715 115.896 446.907 115.896ZM446.907 104.504C448.357 104.504 449.445 104.12 450.171 103.352C450.896 102.584 451.259 101.389 451.259 99.768V80.44C451.259 78.8187 450.896 77.624 450.171 76.856C449.445 76.088 448.357 75.704 446.907 75.704C445.456 75.704 444.368 76.088 443.643 76.856C442.917 77.624 442.555 78.8187 442.555 80.44V99.768C442.555 101.432 442.917 102.648 443.643 103.416C444.368 104.141 445.456 104.504 446.907 104.504ZM497.466 115.896C490.767 115.896 485.583 114.424 481.914 111.48C478.287 108.536 476.474 103.757 476.474 97.144V75.704H473.274V65.208H496.954V75.704H494.394V100.408C494.394 101.816 494.693 102.861 495.29 103.544C495.93 104.184 496.869 104.504 498.106 104.504C499.343 104.504 500.261 104.184 500.858 103.544C501.498 102.861 501.818 101.816 501.818 100.408V75.704H499.258V65.208H521.21V75.704H518.01V97.144C518.01 103.757 516.239 108.536 512.698 111.48C509.157 114.424 504.079 115.896 497.466 115.896ZM523.53 104.504H526.73V75.704H523.53V65.208H552.906C558.41 65.208 562.613 66.3387 565.514 68.6C568.415 70.8613 569.866 74.5307 569.866 79.608C569.866 82.4667 569.29 84.9413 568.138 87.032C566.986 89.1227 565.343 90.5733 563.21 91.384L563.274 92.024C567.37 92.664 569.418 95.1813 569.418 99.576V104.504H572.426V115H552.138V99.96C552.138 98.296 551.882 97.0373 551.37 96.184C550.901 95.3307 550.133 94.7547 549.066 94.456C548.042 94.1573 546.57 94.008 544.65 94.008V104.504H548.874V115H523.53V104.504ZM548.106 86.2C549.343 86.2 550.261 85.88 550.858 85.24C551.498 84.5573 551.818 83.512 551.818 82.104V79.8C551.818 78.392 551.498 77.368 550.858 76.728C550.261 76.0453 549.343 75.704 548.106 75.704H544.65V86.2H548.106ZM613.745 115.896C609.649 115.896 605.766 115.555 602.097 114.872C598.47 114.147 595.676 113.336 593.713 112.44V99.768H607.793C607.793 101.091 608.092 102.051 608.689 102.648C609.286 103.245 610.374 103.544 611.953 103.544C613.276 103.544 614.214 103.352 614.769 102.968C615.366 102.541 615.665 101.923 615.665 101.112C615.665 100.429 615.388 99.8533 614.833 99.384C614.278 98.872 613.318 98.36 611.953 97.848L606.449 95.928C601.713 94.136 598.3 92.024 596.209 89.592C594.161 87.16 593.137 83.8747 593.137 79.736C593.137 74.7013 594.78 70.8827 598.065 68.28C601.393 65.6347 606.918 64.312 614.641 64.312C618.353 64.312 621.83 64.696 625.073 65.464C628.358 66.1893 631.004 67.1707 633.009 68.408V79.864H620.209C620.209 77.7307 618.886 76.664 616.241 76.664C614.961 76.664 614.044 76.8347 613.489 77.176C612.977 77.4747 612.721 78.0293 612.721 78.84C612.721 79.5653 613.02 80.1413 613.617 80.568C614.257 80.9947 615.281 81.4427 616.689 81.912L622.257 83.832C626.78 85.368 630.065 87.3733 632.113 89.848C634.204 92.28 635.249 95.48 635.249 99.448C635.249 104.867 633.414 108.963 629.745 111.736C626.118 114.509 620.785 115.896 613.745 115.896ZM684.774 80.696H673.766V75.704H669.67V104.504H674.15V115H647.27V104.504H651.75V75.704H647.654V80.696H636.646V65.208H684.774V80.696ZM714.936 65.208H734.584V75.704H732.024L719.672 97.848V104.504H722.872V115H698.552V104.504H701.752V97.848L689.016 75.704H686.456V65.208H711.224V75.704H708.984L712.76 85.624H713.4L717.176 75.704H714.936V65.208ZM736.655 115V104.504H739.855V75.704H736.655V65.208H763.663V75.704H757.775V104.504H763.535V98.616H776.271V115H736.655ZM778.468 115V104.504H781.668V75.704H778.468V65.208H821.668V84.536H807.332V75.704H799.588V85.816H805.22V93.112H799.588V104.504H807.332V94.392H821.668V115H778.468Z" fill="black"/>
</svg>
