<svg width="421" height="40" viewBox="0 0 421 40" fill="none" xmlns="http://www.w3.org/2000/svg">
<path d="M27.7408 1.656H43.4848V9.528H41.0848V39H27.5968L13.5328 17.352V31.128H15.8368V39H0.0928126V31.128H2.49281V9.528H0.0928126V1.656H17.4208L30.0448 20.904V9.528H27.7408V1.656ZM45.3272 39V31.128H47.7272V9.528H45.3272V1.656H77.7272V16.152H66.9752V9.528H61.1672V17.112H65.3912V22.584H61.1672V31.128H66.9752V23.544H77.7272V39H45.3272ZM120.586 1.656H135.946V9.528H134.026L126.874 39H112.522L108.154 18.264H107.674L103.066 39H88.7139L81.0819 9.528H79.1619V1.656H96.9219V9.528H95.0979L96.9699 21.768H97.4499L102.01 1.656H115.834L120.058 21.768H120.538L122.41 9.528H120.586V1.656ZM187.106 31.128H189.026V39H170.21V31.128H173.09L172.322 27.288H165.794L165.026 31.128H167.906V39H151.49V31.128H153.41L161.522 1.656H178.994L187.106 31.128ZM166.85 22.2H171.266L169.298 12.648H168.818L166.85 22.2ZM190.546 31.128H192.946V9.528H190.546V1.656H212.578C216.706 1.656 219.858 2.504 222.034 4.2C224.21 5.896 225.298 8.648 225.298 12.456C225.298 14.6 224.866 16.456 224.002 18.024C223.138 19.592 221.906 20.68 220.306 21.288L220.354 21.768C223.426 22.248 224.962 24.136 224.962 27.432V31.128H227.218V39H212.002V27.72C212.002 26.472 211.81 25.528 211.426 24.888C211.074 24.248 210.498 23.816 209.698 23.592C208.93 23.368 207.826 23.256 206.386 23.256V31.128H209.554V39H190.546V31.128ZM208.978 17.4C209.906 17.4 210.594 17.16 211.042 16.68C211.522 16.168 211.762 15.384 211.762 14.328V12.6C211.762 11.544 211.522 10.776 211.042 10.296C210.594 9.784 209.906 9.528 208.978 9.528H206.386V17.4H208.978ZM228.937 31.128H231.337V9.528H228.937V1.656H250.969C255.097 1.656 258.249 2.504 260.425 4.2C262.601 5.896 263.689 8.648 263.689 12.456C263.689 14.6 263.257 16.456 262.393 18.024C261.529 19.592 260.297 20.68 258.697 21.288L258.745 21.768C261.817 22.248 263.353 24.136 263.353 27.432V31.128H265.609V39H250.393V27.72C250.393 26.472 250.201 25.528 249.817 24.888C249.465 24.248 248.889 23.816 248.089 23.592C247.321 23.368 246.217 23.256 244.777 23.256V31.128H247.945V39H228.937V31.128ZM247.369 17.4C248.297 17.4 248.985 17.16 249.433 16.68C249.913 16.168 250.153 15.384 250.153 14.328V12.6C250.153 11.544 249.913 10.776 249.433 10.296C248.985 9.784 248.297 9.528 247.369 9.528H244.777V17.4H247.369ZM267.327 39V31.128H269.727V9.528H267.327V1.656H285.567V9.528H283.167V31.128H285.567V39H267.327ZM307.643 1.656H323.675V9.528H321.755L313.163 39H297.611L289.019 9.528H287.099V1.656H305.531V9.528H303.035L306.347 25.608H306.827L310.139 9.528H307.643V1.656ZM354.684 31.128H356.604V39H337.788V31.128H340.668L339.9 27.288H333.372L332.604 31.128H335.484V39H319.068V31.128H320.988L329.1 1.656H346.572L354.684 31.128ZM334.428 22.2H338.844L336.876 12.648H336.396L334.428 22.2ZM358.124 39V31.128H360.524V9.528H358.124V1.656H378.38V9.528H373.964V31.128H378.284V26.712H387.836V39H358.124ZM404.363 39.672C401.291 39.672 398.379 39.416 395.627 38.904C392.907 38.36 390.811 37.752 389.339 37.08V27.576H399.899C399.899 28.568 400.123 29.288 400.571 29.736C401.019 30.184 401.835 30.408 403.019 30.408C404.011 30.408 404.715 30.264 405.131 29.976C405.579 29.656 405.803 29.192 405.803 28.584C405.803 28.072 405.595 27.64 405.179 27.288C404.763 26.904 404.043 26.52 403.019 26.136L398.891 24.696C395.339 23.352 392.779 21.768 391.211 19.944C389.675 18.12 388.907 15.656 388.907 12.552C388.907 8.776 390.139 5.912 392.603 3.96C395.099 1.976 399.243 0.983997 405.035 0.983997C407.819 0.983997 410.427 1.272 412.859 1.848C415.323 2.392 417.307 3.128 418.811 4.056V12.648H409.211C409.211 11.048 408.219 10.248 406.235 10.248C405.275 10.248 404.587 10.376 404.171 10.632C403.787 10.856 403.595 11.272 403.595 11.88C403.595 12.424 403.819 12.856 404.267 13.176C404.747 13.496 405.515 13.832 406.571 14.184L410.747 15.624C414.139 16.776 416.603 18.28 418.139 20.136C419.707 21.96 420.491 24.36 420.491 27.336C420.491 31.4 419.115 34.472 416.363 36.552C413.643 38.632 409.643 39.672 404.363 39.672Z" fill="black"/>
</svg>
