<svg width="546" height="78" viewBox="0 0 546 78" fill="none" xmlns="http://www.w3.org/2000/svg">
<path d="M13.2 32.56C10.64 32.56 8.21333 32.3467 5.92 31.92C3.65333 31.4667 1.90667 30.96 0.68 30.4V22.48H9.48C9.48 23.3067 9.66667 23.9067 10.04 24.28C10.4133 24.6533 11.0933 24.84 12.08 24.84C12.9067 24.84 13.4933 24.72 13.84 24.48C14.2133 24.2133 14.4 23.8267 14.4 23.32C14.4 22.8933 14.2267 22.5333 13.88 22.24C13.5333 21.92 12.9333 21.6 12.08 21.28L8.64 20.08C5.68 18.96 3.54667 17.64 2.24 16.12C0.96 14.6 0.32 12.5467 0.32 9.96C0.32 6.81333 1.34667 4.42667 3.4 2.8C5.48 1.14666 8.93333 0.319998 13.76 0.319998C16.08 0.319998 18.2533 0.559998 20.28 1.04C22.3333 1.49333 23.9867 2.10667 25.24 2.88V10.04H17.24C17.24 8.70667 16.4133 8.04 14.76 8.04C13.96 8.04 13.3867 8.14667 13.04 8.36C12.72 8.54667 12.56 8.89333 12.56 9.4C12.56 9.85333 12.7467 10.2133 13.12 10.48C13.52 10.7467 14.16 11.0267 15.04 11.32L18.52 12.52C21.3467 13.48 23.4 14.7333 24.68 16.28C25.9867 17.8 26.64 19.8 26.64 22.28C26.64 25.6667 25.4933 28.2267 23.2 29.96C20.9333 31.6933 17.6 32.56 13.2 32.56ZM57.5931 10.56H50.7131V7.44H48.1531V25.44H50.9531V32H34.1531V25.44H36.9531V7.44H34.3931V10.56H27.5131V0.879998H57.5931V10.56ZM83.91 25.44H85.51V32H69.83V25.44H72.23L71.59 22.24H66.15L65.51 25.44H67.91V32H54.23V25.44H55.83L62.59 0.879998H77.15L83.91 25.44ZM67.03 18H70.71L69.07 10.04H68.67L67.03 18ZM98.6706 0.879998H110.951V7.44H109.351L101.631 21.28V25.44H103.631V32H88.4306V25.44H90.4306V21.28L82.4706 7.44H80.8706V0.879998H96.3506V7.44H94.9506L97.3106 13.64H97.7106L100.071 7.44H98.6706V0.879998ZM139.198 32.56C135.011 32.56 131.771 31.64 129.478 29.8C127.211 27.96 126.077 24.9733 126.077 20.84V7.44H124.078V0.879998H138.878V7.44H137.278V22.88C137.278 23.76 137.464 24.4133 137.838 24.84C138.238 25.24 138.824 25.44 139.598 25.44C140.371 25.44 140.944 25.24 141.318 24.84C141.718 24.4133 141.918 23.76 141.918 22.88V7.44H140.318V0.879998H154.038V7.44H152.038V20.84C152.038 24.9733 150.931 27.96 148.718 29.8C146.504 31.64 143.331 32.56 139.198 32.56ZM155.488 25.44H157.488V7.44H155.488V0.879998H173.048C176.488 0.879998 179.114 1.62666 180.928 3.12C182.741 4.58666 183.648 6.97333 183.648 10.28C183.648 13.5867 182.741 15.9867 180.928 17.48C179.114 18.9467 176.488 19.68 173.048 19.68H168.688V25.44H172.528V32H155.488V25.44ZM170.048 14C171.594 14 172.368 13.1467 172.368 11.44V10C172.368 9.12 172.168 8.48 171.768 8.08C171.394 7.65333 170.821 7.44 170.048 7.44H168.688V14H170.048ZM214.859 10.56H207.979V7.44H205.419V25.44H208.219V32H191.419V25.44H194.219V7.44H191.659V10.56H184.779V0.879998H214.859V10.56ZM231.27 32.56C226.39 32.56 222.616 31.28 219.95 28.72C217.31 26.16 215.99 22.0667 215.99 16.44C215.99 10.8133 217.31 6.72 219.95 4.16C222.616 1.6 226.39 0.319998 231.27 0.319998C236.15 0.319998 239.91 1.6 242.55 4.16C245.216 6.72 246.55 10.8133 246.55 16.44C246.55 22.0667 245.216 26.16 242.55 28.72C239.91 31.28 236.15 32.56 231.27 32.56ZM231.27 25.44C232.176 25.44 232.856 25.2 233.31 24.72C233.763 24.24 233.99 23.4933 233.99 22.48V10.4C233.99 9.38667 233.763 8.64 233.31 8.16C232.856 7.68 232.176 7.44 231.27 7.44C230.363 7.44 229.683 7.68 229.23 8.16C228.776 8.64 228.55 9.38667 228.55 10.4V22.48C228.55 23.52 228.776 24.28 229.23 24.76C229.683 25.2133 230.363 25.44 231.27 25.44ZM259.902 25.44H261.902V7.48H259.902V0.879998H276.142C280.595 0.879998 284.128 2.10666 286.742 4.56C289.382 6.98667 290.702 10.9467 290.702 16.44C290.702 21.9333 289.382 25.9067 286.742 28.36C284.128 30.7867 280.595 32 276.142 32H259.902V25.44ZM275.422 25.44C276.328 25.44 277.008 25.2 277.462 24.72C277.915 24.24 278.142 23.4933 278.142 22.48V10.4C278.142 8.42667 277.235 7.44 275.422 7.44H273.102V25.44H275.422ZM320.199 25.44H321.799V32H306.119V25.44H308.519L307.879 22.24H302.439L301.799 25.44H304.199V32H290.519V25.44H292.119L298.879 0.879998H313.439L320.199 25.44ZM303.319 18H306.999L305.359 10.04H304.959L303.319 18ZM348.101 10.56H341.221V7.44H338.661V25.44H341.461V32H324.661V25.44H327.461V7.44H324.901V10.56H318.021V0.879998H348.101V10.56ZM349.472 32V25.44H351.472V7.44H349.472V0.879998H376.472V12.96H367.512V7.44H362.672V13.76H366.192V18.32H362.672V25.44H367.512V19.12H376.472V32H349.472ZM419.34 25.44H420.94V32H405.26V25.44H407.66L407.02 22.24H401.58L400.94 25.44H403.34V32H389.66V25.44H391.26L398.02 0.879998H412.58L419.34 25.44ZM402.46 18H406.14L404.5 10.04H404.1L402.46 18ZM422.206 25.44H424.206V7.44H422.206V0.879998H440.566C443.9 0.879998 446.5 1.56 448.366 2.92C450.233 4.28 451.166 6.22666 451.166 8.76C451.166 10.3333 450.793 11.6667 450.046 12.76C449.3 13.8267 448.42 14.64 447.406 15.2C446.42 15.7333 445.46 16.0933 444.526 16.28V16.68C446.42 16.8667 448.126 17.4667 449.646 18.48C451.166 19.4933 451.926 21.3067 451.926 23.92C451.926 26.72 450.873 28.7733 448.766 30.08C446.66 31.36 443.926 32 440.566 32H422.206V25.44ZM437.566 14C438.34 14 438.913 13.8 439.286 13.4C439.686 12.9733 439.886 12.32 439.886 11.44V10C439.886 9.12 439.686 8.48 439.286 8.08C438.913 7.65333 438.34 7.44 437.566 7.44H435.406V14H437.566ZM437.846 25.44C438.62 25.44 439.193 25.24 439.566 24.84C439.966 24.4133 440.166 23.76 440.166 22.88V21.12C440.166 20.24 439.966 19.6 439.566 19.2C439.193 18.7733 438.62 18.56 437.846 18.56H435.406V25.44H437.846ZM468.262 32.56C463.382 32.56 459.609 31.28 456.942 28.72C454.302 26.16 452.982 22.0667 452.982 16.44C452.982 10.8133 454.302 6.72 456.942 4.16C459.609 1.6 463.382 0.319998 468.262 0.319998C473.142 0.319998 476.902 1.6 479.542 4.16C482.209 6.72 483.542 10.8133 483.542 16.44C483.542 22.0667 482.209 26.16 479.542 28.72C476.902 31.28 473.142 32.56 468.262 32.56ZM468.262 25.44C469.169 25.44 469.849 25.2 470.302 24.72C470.755 24.24 470.982 23.4933 470.982 22.48V10.4C470.982 9.38667 470.755 8.64 470.302 8.16C469.849 7.68 469.169 7.44 468.262 7.44C467.355 7.44 466.675 7.68 466.222 8.16C465.769 8.64 465.542 9.38667 465.542 10.4V22.48C465.542 23.52 465.769 24.28 466.222 24.76C466.675 25.2133 467.355 25.44 468.262 25.44ZM499.862 32.56C495.675 32.56 492.435 31.64 490.142 29.8C487.875 27.96 486.742 24.9733 486.742 20.84V7.44H484.742V0.879998H499.542V7.44H497.942V22.88C497.942 23.76 498.128 24.4133 498.502 24.84C498.902 25.24 499.488 25.44 500.262 25.44C501.035 25.44 501.608 25.24 501.982 24.84C502.382 24.4133 502.582 23.76 502.582 22.88V7.44H500.982V0.879998H514.702V7.44H512.702V20.84C512.702 24.9733 511.595 27.96 509.382 29.8C507.168 31.64 503.995 32.56 499.862 32.56ZM545.992 10.56H539.112V7.44H536.552V25.44H539.352V32H522.552V25.44H525.352V7.44H522.792V10.56H515.912V0.879998H545.992V10.56ZM15.84 77.56C10.96 77.56 7.18667 76.28 4.52 73.72C1.88 71.16 0.56 67.0667 0.56 61.44C0.56 55.8133 1.88 51.72 4.52 49.16C7.18667 46.6 10.96 45.32 15.84 45.32C20.72 45.32 24.48 46.6 27.12 49.16C29.7867 51.72 31.12 55.8133 31.12 61.44C31.12 67.0667 29.7867 71.16 27.12 73.72C24.48 76.28 20.72 77.56 15.84 77.56ZM15.84 70.44C16.7467 70.44 17.4267 70.2 17.88 69.72C18.3333 69.24 18.56 68.4933 18.56 67.48V55.4C18.56 54.3867 18.3333 53.64 17.88 53.16C17.4267 52.68 16.7467 52.44 15.84 52.44C14.9333 52.44 14.2533 52.68 13.8 53.16C13.3467 53.64 13.12 54.3867 13.12 55.4V67.48C13.12 68.52 13.3467 69.28 13.8 69.76C14.2533 70.2133 14.9333 70.44 15.84 70.44ZM47.4397 77.56C43.253 77.56 40.013 76.64 37.7197 74.8C35.453 72.96 34.3197 69.9733 34.3197 65.84V52.44H32.3197V45.88H47.1197V52.44H45.5197V67.88C45.5197 68.76 45.7064 69.4133 46.0797 69.84C46.4797 70.24 47.0664 70.44 47.8397 70.44C48.613 70.44 49.1864 70.24 49.5597 69.84C49.9597 69.4133 50.1597 68.76 50.1597 67.88V52.44H48.5597V45.88H62.2797V52.44H60.2797V65.84C60.2797 69.9733 59.173 72.96 56.9597 74.8C54.7464 76.64 51.573 77.56 47.4397 77.56ZM63.7297 70.44H65.7297V52.44H63.7297V45.88H82.0897C85.5297 45.88 88.1564 46.5867 89.9697 48C91.783 49.4133 92.6897 51.7067 92.6897 54.88C92.6897 56.6667 92.3297 58.2133 91.6097 59.52C90.8897 60.8267 89.863 61.7333 88.5297 62.24L88.5697 62.64C91.1297 63.04 92.4097 64.6133 92.4097 67.36V70.44H94.2897V77H81.6097V67.6C81.6097 66.56 81.4497 65.7733 81.1297 65.24C80.8364 64.7067 80.3564 64.3467 79.6897 64.16C79.0497 63.9733 78.1297 63.88 76.9297 63.88V70.44H79.5697V77H63.7297V70.44ZM79.0897 59C79.863 59 80.4364 58.8 80.8097 58.4C81.2097 57.9733 81.4097 57.32 81.4097 56.44V55C81.4097 54.12 81.2097 53.48 80.8097 53.08C80.4364 52.6533 79.863 52.44 79.0897 52.44H76.9297V59H79.0897ZM107.714 77V70.44H109.714V52.44H107.714V45.88H124.594V52.44H120.914V70.44H124.514V66.76H132.474V77H107.714ZM163.207 70.44H164.807V77H149.127V70.44H151.527L150.887 67.24H145.447L144.807 70.44H147.207V77H133.527V70.44H135.127L141.887 45.88H156.447L163.207 70.44ZM146.327 63H150.007L148.367 55.04H147.967L146.327 63ZM191.109 55.56H184.229V52.44H181.669V70.44H184.469V77H167.669V70.44H170.469V52.44H167.909V55.56H161.029V45.88H191.109V55.56ZM192.48 77V70.44H194.48V52.44H192.48V45.88H219.48V57.96H210.52V52.44H205.68V58.76H209.2V63.32H205.68V70.44H210.52V64.12H219.48V77H192.48ZM233.395 77.56C230.835 77.56 228.409 77.3467 226.115 76.92C223.849 76.4667 222.102 75.96 220.875 75.4V67.48H229.675C229.675 68.3067 229.862 68.9067 230.235 69.28C230.609 69.6533 231.289 69.84 232.275 69.84C233.102 69.84 233.689 69.72 234.035 69.48C234.409 69.2133 234.595 68.8267 234.595 68.32C234.595 67.8933 234.422 67.5333 234.075 67.24C233.729 66.92 233.129 66.6 232.275 66.28L228.835 65.08C225.875 63.96 223.742 62.64 222.435 61.12C221.155 59.6 220.515 57.5467 220.515 54.96C220.515 51.8133 221.542 49.4267 223.595 47.8C225.675 46.1467 229.129 45.32 233.955 45.32C236.275 45.32 238.449 45.56 240.475 46.04C242.529 46.4933 244.182 47.1067 245.435 47.88V55.04H237.435C237.435 53.7067 236.609 53.04 234.955 53.04C234.155 53.04 233.582 53.1467 233.235 53.36C232.915 53.5467 232.755 53.8933 232.755 54.4C232.755 54.8533 232.942 55.2133 233.315 55.48C233.715 55.7467 234.355 56.0267 235.235 56.32L238.715 57.52C241.542 58.48 243.595 59.7333 244.875 61.28C246.182 62.8 246.835 64.8 246.835 67.28C246.835 70.6667 245.689 73.2267 243.395 74.96C241.129 76.6933 237.795 77.56 233.395 77.56ZM277.788 55.56H270.908V52.44H268.348V70.44H271.148V77H254.348V70.44H257.148V52.44H254.588V55.56H247.708V45.88H277.788V55.56ZM306.192 77.56C301.312 77.56 297.538 76.28 294.872 73.72C292.232 71.16 290.912 67.0667 290.912 61.44C290.912 55.8133 292.232 51.72 294.872 49.16C297.538 46.6 301.312 45.32 306.192 45.32C311.072 45.32 314.832 46.6 317.472 49.16C320.138 51.72 321.472 55.8133 321.472 61.44C321.472 67.0667 320.138 71.16 317.472 73.72C314.832 76.28 311.072 77.56 306.192 77.56ZM306.192 70.44C307.098 70.44 307.778 70.2 308.232 69.72C308.685 69.24 308.912 68.4933 308.912 67.48V55.4C308.912 54.3867 308.685 53.64 308.232 53.16C307.778 52.68 307.098 52.44 306.192 52.44C305.285 52.44 304.605 52.68 304.152 53.16C303.698 53.64 303.472 54.3867 303.472 55.4V67.48C303.472 68.52 303.698 69.28 304.152 69.76C304.605 70.2133 305.285 70.44 306.192 70.44ZM322.831 77V70.44H324.831V52.44H322.831V45.88H346.751V56.24H339.671V52.44H336.031V59.08H342.071V63.64H336.031V70.44H341.271V77H322.831ZM348.105 77V70.44H350.105V52.44H348.105V45.88H372.025V56.24H364.945V52.44H361.305V59.08H367.345V63.64H361.305V70.44H366.545V77H348.105ZM373.378 77V70.44H375.378V52.44H373.378V45.88H400.378V57.96H391.418V52.44H386.578V58.76H390.098V63.32H386.578V70.44H391.418V64.12H400.378V77H373.378ZM401.894 70.44H403.894V52.44H401.894V45.88H420.254C423.694 45.88 426.32 46.5867 428.134 48C429.947 49.4133 430.854 51.7067 430.854 54.88C430.854 56.6667 430.494 58.2133 429.774 59.52C429.054 60.8267 428.027 61.7333 426.694 62.24L426.734 62.64C429.294 63.04 430.574 64.6133 430.574 67.36V70.44H432.454V77H419.774V67.6C419.774 66.56 419.614 65.7733 419.294 65.24C419 64.7067 418.52 64.3467 417.854 64.16C417.214 63.9733 416.294 63.88 415.094 63.88V70.44H417.734V77H401.894V70.44ZM417.254 59C418.027 59 418.6 58.8 418.974 58.4C419.374 57.9733 419.574 57.32 419.574 56.44V55C419.574 54.12 419.374 53.48 418.974 53.08C418.6 52.6533 418.027 52.44 417.254 52.44H415.094V59H417.254ZM446.286 77.56C443.726 77.56 441.299 77.3467 439.006 76.92C436.739 76.4667 434.993 75.96 433.766 75.4V67.48H442.566C442.566 68.3067 442.753 68.9067 443.126 69.28C443.499 69.6533 444.179 69.84 445.166 69.84C445.993 69.84 446.579 69.72 446.926 69.48C447.299 69.2133 447.486 68.8267 447.486 68.32C447.486 67.8933 447.313 67.5333 446.966 67.24C446.619 66.92 446.019 66.6 445.166 66.28L441.726 65.08C438.766 63.96 436.633 62.64 435.326 61.12C434.046 59.6 433.406 57.5467 433.406 54.96C433.406 51.8133 434.433 49.4267 436.486 47.8C438.566 46.1467 442.019 45.32 446.846 45.32C449.166 45.32 451.339 45.56 453.366 46.04C455.419 46.4933 457.073 47.1067 458.326 47.88V55.04H450.326C450.326 53.7067 449.499 53.04 447.846 53.04C447.046 53.04 446.473 53.1467 446.126 53.36C445.806 53.5467 445.646 53.8933 445.646 54.4C445.646 54.8533 445.833 55.2133 446.206 55.48C446.606 55.7467 447.246 56.0267 448.126 56.32L451.606 57.52C454.433 58.48 456.486 59.7333 457.766 61.28C459.073 62.8 459.726 64.8 459.726 67.28C459.726 70.6667 458.579 73.2267 456.286 74.96C454.019 76.6933 450.686 77.56 446.286 77.56Z" fill="white"/>
</svg>
