<svg width="358" height="40" viewBox="0 0 358 40" fill="none" xmlns="http://www.w3.org/2000/svg">
<path d="M37.0102 13.272H28.7542V9.528H25.6822V31.128H29.0422V39H8.88219V31.128H12.2422V9.528H9.17019V13.272H0.914188V1.656H37.0102V13.272ZM56.7033 39.672C50.8473 39.672 46.3193 38.136 43.1193 35.064C39.9513 31.992 38.3673 27.08 38.3673 20.328C38.3673 13.576 39.9513 8.664 43.1193 5.592C46.3193 2.52 50.8473 0.983997 56.7033 0.983997C62.5593 0.983997 67.0713 2.52 70.2393 5.592C73.4393 8.664 75.0393 13.576 75.0393 20.328C75.0393 27.08 73.4393 31.992 70.2393 35.064C67.0713 38.136 62.5593 39.672 56.7033 39.672ZM56.7033 31.128C57.7913 31.128 58.6073 30.84 59.1513 30.264C59.6953 29.688 59.9673 28.792 59.9673 27.576V13.08C59.9673 11.864 59.6953 10.968 59.1513 10.392C58.6073 9.816 57.7913 9.528 56.7033 9.528C55.6153 9.528 54.7993 9.816 54.2553 10.392C53.7113 10.968 53.4393 11.864 53.4393 13.08V27.576C53.4393 28.824 53.7113 29.736 54.2553 30.312C54.7993 30.856 55.6153 31.128 56.7033 31.128ZM76.6709 31.128H79.0709V9.528H76.6709V1.656H97.7429C101.871 1.656 105.023 2.552 107.199 4.344C109.375 6.104 110.463 8.968 110.463 12.936C110.463 16.904 109.375 19.784 107.199 21.576C105.023 23.336 101.871 24.216 97.7429 24.216H92.5109V31.128H97.1189V39H76.6709V31.128ZM94.1429 17.4C95.9989 17.4 96.9269 16.376 96.9269 14.328V12.6C96.9269 11.544 96.6869 10.776 96.2069 10.296C95.7589 9.784 95.0709 9.528 94.1429 9.528H92.5109V17.4H94.1429ZM141.379 39.672C138.307 39.672 135.395 39.416 132.643 38.904C129.923 38.36 127.827 37.752 126.355 37.08V27.576H136.915C136.915 28.568 137.139 29.288 137.587 29.736C138.035 30.184 138.851 30.408 140.035 30.408C141.027 30.408 141.731 30.264 142.147 29.976C142.595 29.656 142.819 29.192 142.819 28.584C142.819 28.072 142.611 27.64 142.195 27.288C141.779 26.904 141.059 26.52 140.035 26.136L135.907 24.696C132.355 23.352 129.795 21.768 128.227 19.944C126.691 18.12 125.923 15.656 125.923 12.552C125.923 8.776 127.155 5.912 129.619 3.96C132.115 1.976 136.259 0.983997 142.051 0.983997C144.835 0.983997 147.443 1.272 149.875 1.848C152.339 2.392 154.323 3.128 155.827 4.056V12.648H146.227C146.227 11.048 145.235 10.248 143.251 10.248C142.291 10.248 141.603 10.376 141.187 10.632C140.803 10.856 140.611 11.272 140.611 11.88C140.611 12.424 140.835 12.856 141.283 13.176C141.763 13.496 142.531 13.832 143.587 14.184L147.763 15.624C151.155 16.776 153.619 18.28 155.155 20.136C156.723 21.96 157.507 24.36 157.507 27.336C157.507 31.4 156.131 34.472 153.379 36.552C150.659 38.632 146.659 39.672 141.379 39.672ZM158.843 39V31.128H161.243V9.528H158.843V1.656H191.243V16.152H180.491V9.528H174.683V17.112H178.907V22.584H174.683V31.128H180.491V23.544H191.243V39H158.843ZM193.062 39V31.128H195.462V9.528H193.062V1.656H213.318V9.528H208.902V31.128H213.222V26.712H222.774V39H193.062ZM224.421 39V31.128H226.821V9.528H224.421V1.656H244.677V9.528H240.261V31.128H244.581V26.712H254.133V39H224.421ZM255.78 39V31.128H258.18V9.528H255.78V1.656H274.02V9.528H271.62V31.128H274.02V39H255.78ZM303.585 1.656H319.329V9.528H316.929V39H303.441L289.377 17.352V31.128H291.681V39H275.937V31.128H278.337V9.528H275.937V1.656H293.265L305.889 20.904V9.528H303.585V1.656ZM357.363 27H354.963V36.6C353.555 37.4 351.491 38.12 348.771 38.76C346.083 39.368 343.171 39.672 340.035 39.672C334.051 39.672 329.363 38.104 325.971 34.968C322.579 31.8 320.883 26.92 320.883 20.328C320.883 13.576 322.563 8.664 325.923 5.592C329.315 2.52 334.147 0.983997 340.419 0.983997C343.459 0.983997 346.307 1.304 348.963 1.944C351.619 2.584 353.619 3.304 354.963 4.104V15.576H342.963V13.32C342.963 11.976 342.675 11.016 342.099 10.44C341.555 9.832 340.675 9.528 339.459 9.528C338.243 9.528 337.347 9.832 336.771 10.44C336.227 11.016 335.955 11.976 335.955 13.32V27.336C335.955 28.68 336.227 29.656 336.771 30.264C337.347 30.84 338.243 31.128 339.459 31.128C340.675 31.128 341.555 30.84 342.099 30.264C342.675 29.656 342.963 28.68 342.963 27.336V27H340.371V19.848H357.363V27Z" fill="black"/>
</svg>
